<svg version="1.1" id="Layer_1" xmlns="http://www.w3.org/2000/svg" xmlns:xlink="http://www.w3.org/1999/xlink" x="0px" y="0px"
	 width="100%" viewBox="0 0 5065 1693" enable-background="new 0 0 5065 1693" xml:space="preserve">
<path fill="#FFFFFF" opacity="1.000000" stroke="none" 
	d="
M2.000001,750.000000 
	C2.000000,500.681488 2.000000,251.362961 2.000000,2.022225 
	C1690.551392,2.022225 3379.102783,2.022225 5067.827148,2.022225 
	C5067.827148,566.517883 5067.827148,1131.035889 5067.827148,1695.776855 
	C3379.582520,1695.776855 1691.164795,1695.776855 2.000000,1695.776855 
	C2.000000,1403.268311 2.000000,1110.535889 2.637990,817.390015 
	C3.561160,818.270142 3.932454,819.551575 4.118828,820.859436 
	C8.013971,848.193481 10.410685,875.837646 16.017895,902.814758 
	C42.756470,1031.458008 105.464653,1139.434204 205.790268,1224.579468 
	C300.581879,1305.027954 410.808319,1346.962891 535.005188,1351.456665 
	C581.826538,1353.150879 628.147644,1347.894287 673.656250,1336.590698 
	C792.258850,1307.131714 889.781616,1244.114502 966.391907,1149.415405 
	C1050.446411,1045.514404 1092.045654,925.669312 1095.148071,792.408081 
	C1096.174072,748.334473 1091.692871,704.603882 1082.218872,661.465576 
	C1052.127319,524.447876 983.390686,411.097198 871.676147,325.875183 
	C750.931152,233.764221 614.120850,199.329041 464.041931,222.823914 
	C355.292664,239.848618 261.315735,288.554810 181.538589,364.186310 
	C113.004189,429.159241 64.287415,507.009521 34.029114,596.395935 
	C18.910927,641.056702 9.366506,686.904419 5.640440,733.956909 
	C5.212038,739.366760 3.250628,744.655273 2.000001,750.000000 
M1375.000000,1263.517944 
	C1454.539429,1263.517944 1534.078857,1263.517944 1614.392700,1263.517944 
	C1614.046509,1252.302734 1615.264282,1242.474854 1613.394165,1232.008179 
	C1598.873413,1232.008179 1584.898682,1232.531494 1570.979980,1231.874023 
	C1554.047363,1231.074097 1537.043701,1230.106079 1520.284790,1227.712036 
	C1497.937256,1224.519409 1479.711548,1213.854736 1470.585449,1192.231323 
	C1466.374390,1182.253540 1463.150635,1171.301392 1462.305664,1160.568481 
	C1460.058594,1132.029907 1458.406250,1103.377075 1458.203735,1074.757690 
	C1457.626343,993.100586 1457.881470,911.437683 1457.843140,829.777039 
	C1457.841797,826.880432 1458.200195,823.983704 1458.380371,821.246460 
	C1474.684448,818.774170 1510.203247,820.221375 1524.528809,823.368774 
	C1536.959839,826.100037 1547.633423,831.717773 1556.379028,840.958130 
	C1563.020630,847.975525 1569.885376,854.802734 1576.205078,862.100647 
	C1621.644409,914.574951 1662.695801,970.386047 1701.814575,1027.663940 
	C1742.233643,1086.845459 1783.587280,1145.341187 1830.145752,1199.943970 
	C1847.457764,1220.247192 1865.500732,1239.872070 1886.226074,1256.832520 
	C1890.889282,1260.648560 1895.438354,1263.691772 1902.182373,1263.670288 
	C1977.509644,1263.429565 2052.837891,1263.525757 2128.165771,1263.483154 
	C2130.687988,1263.481689 2133.209717,1262.972900 2136.201416,1262.649902 
	C2136.183350,1252.053467 2136.706787,1242.215454 2135.885010,1232.301392 
	C2112.113281,1230.669312 2089.748291,1227.590576 2067.968750,1220.935791 
	C2030.508789,1209.489746 1998.620361,1188.986450 1970.677734,1161.859985 
	C1935.177856,1127.396973 1904.050781,1089.151855 1874.092896,1049.940308 
	C1839.098511,1004.136536 1804.958130,957.676208 1769.683472,912.091797 
	C1747.041870,882.832642 1722.779419,854.827087 1695.153198,830.048096 
	C1684.325439,820.336304 1672.583984,811.643127 1660.569336,801.928650 
	C1668.344360,800.592896 1675.760132,799.321716 1683.174927,798.044556 
	C1721.799438,791.391479 1759.063110,780.536621 1793.784180,761.953308 
	C1831.650879,741.686401 1862.217529,713.598267 1884.228394,676.565796 
	C1905.817627,640.243042 1913.988892,600.712463 1912.342651,558.739197 
	C1910.938110,522.928162 1901.270874,489.772675 1881.316284,459.964783 
	C1853.615723,418.586243 1815.521240,389.754364 1770.293091,369.905060 
	C1724.298828,349.719635 1675.501953,341.281433 1625.984131,336.225555 
	C1586.824341,332.227295 1547.505005,330.969238 1508.177368,331.975616 
	C1448.562012,333.501129 1388.957397,335.521240 1329.360474,337.672363 
	C1296.069580,338.873993 1262.800781,340.710754 1229.527588,342.372437 
	C1217.286987,342.983734 1205.062256,343.914673 1192.011597,344.752319 
	C1191.454712,355.313812 1191.325928,365.328583 1192.034180,375.941040 
	C1200.334839,375.941040 1207.324951,375.578827 1214.265503,376.010956 
	C1232.859375,377.168579 1251.547485,377.792023 1269.986328,380.230377 
	C1299.085815,384.078369 1313.501465,397.852173 1320.473267,426.500183 
	C1322.041870,432.945282 1323.421387,439.560883 1323.769287,446.156982 
	C1325.312500,475.426849 1327.479614,504.715363 1327.559937,534.002258 
	C1327.980835,687.656738 1327.984253,841.312927 1327.795044,994.968140 
	C1327.740479,1039.284302 1326.786133,1083.604004 1325.768433,1127.911255 
	C1325.471191,1140.855225 1324.073853,1153.838745 1322.240601,1166.669922 
	C1317.085938,1202.745728 1298.412964,1221.616943 1262.732178,1228.214844 
	C1240.950928,1232.242554 1218.986328,1232.094482 1196.997925,1232.015137 
	C1193.118652,1232.001099 1189.239380,1232.013184 1185.005127,1232.013184 
	C1184.289673,1243.171631 1184.194824,1252.932129 1184.949829,1263.517456 
	C1248.455322,1263.517456 1310.727661,1263.517456 1375.000000,1263.517944 
M2170.589844,1241.387329 
	C2171.207520,1248.534058 2169.167969,1255.913452 2172.303711,1263.519897 
	C2176.432617,1263.519897 2180.402100,1263.519897 2184.371338,1263.519897 
	C2278.029541,1263.519897 2371.687500,1263.510376 2465.345703,1263.523682 
	C2516.661133,1263.531006 2567.971436,1263.825439 2619.220459,1260.210205 
	C2657.809814,1257.487915 2696.170654,1253.259888 2733.754639,1243.868774 
	C2801.090332,1227.043579 2851.599854,1187.899048 2885.184570,1127.324341 
	C2906.764893,1088.401245 2913.896484,1046.116211 2912.373047,1001.960693 
	C2910.461426,946.552490 2890.298096,899.059753 2852.078369,859.013428 
	C2822.870850,828.409973 2787.280029,808.170776 2747.764893,794.296936 
	C2710.179443,781.100769 2671.347900,773.673279 2631.768799,769.826294 
	C2628.255859,769.484863 2624.797607,768.578918 2619.746338,767.645508 
	C2641.245361,762.804688 2660.851074,758.979431 2680.134033,753.923645 
	C2718.383789,743.895203 2754.843506,729.557861 2787.273682,706.316223 
	C2821.114746,682.063354 2845.508545,650.826965 2857.132324,610.456665 
	C2864.295654,585.577820 2866.148926,560.168884 2864.348877,534.300537 
	C2860.646484,481.090851 2838.582031,437.745850 2796.291748,405.020874 
	C2764.633301,380.523346 2728.223145,366.156158 2689.928467,356.036652 
	C2658.641113,347.768921 2626.853516,342.023102 2594.572266,339.848389 
	C2562.352051,337.677765 2530.036133,334.802124 2497.809570,335.301453 
	C2430.523682,336.343964 2363.272461,339.515533 2296.000244,341.594849 
	C2260.361816,342.696442 2224.708984,343.328766 2189.063721,344.218140 
	C2186.217529,344.289185 2183.380371,344.713257 2180.149658,345.008881 
	C2180.262207,355.829559 2179.617432,365.663147 2180.581055,375.934967 
	C2189.154541,375.934967 2196.491211,375.564117 2203.778564,376.006836 
	C2223.037842,377.176788 2242.338867,378.121033 2261.506348,380.221405 
	C2288.086914,383.133972 2304.235352,398.532166 2310.779541,424.268066 
	C2311.271240,426.202057 2311.979980,428.118042 2312.178223,430.083740 
	C2314.115479,449.279236 2317.115234,468.453735 2317.613770,487.691162 
	C2318.856689,535.660034 2319.125732,583.657532 2319.452148,631.645752 
	C2319.719482,670.973694 2319.625732,710.305298 2319.484131,749.634583 
	C2319.053711,869.282654 2318.683838,988.931580 2317.864014,1108.577271 
	C2317.734131,1127.514404 2315.978027,1146.498779 2313.955322,1165.352173 
	C2310.156982,1200.759399 2289.521973,1222.721680 2254.436279,1227.897583 
	C2237.046143,1230.463013 2219.328369,1230.964478 2201.732666,1231.918823 
	C2191.823975,1232.456421 2181.861816,1232.015869 2171.510254,1232.015869 
	C2171.138184,1235.064209 2170.864990,1237.302124 2170.589844,1241.387329 
M3103.609375,885.000000 
	C3103.643066,912.327820 3103.660889,939.655640 3103.714600,966.983398 
	C3103.777832,999.063599 3107.062988,1030.810547 3114.078369,1062.120483 
	C3121.800781,1096.585327 3134.341309,1128.967285 3155.766602,1157.494995 
	C3180.483643,1190.406128 3212.377441,1214.552734 3248.279297,1233.883789 
	C3296.895752,1260.061279 3349.360840,1272.807007 3403.902344,1277.718018 
	C3450.161377,1281.883301 3496.362549,1281.213745 3542.416992,1274.239380 
	C3589.288086,1267.141357 3633.714600,1252.970947 3675.406738,1230.260864 
	C3719.438721,1206.275879 3754.664795,1173.178467 3780.380371,1130.035400 
	C3796.239746,1103.427856 3807.499268,1075.142456 3811.794678,1044.334351 
	C3817.324219,1004.676025 3819.429932,964.729858 3819.595703,924.766968 
	C3820.109131,801.123962 3819.742920,677.477356 3820.258789,553.834351 
	C3820.372559,526.557312 3822.345459,499.265564 3824.136475,472.024933 
	C3825.659912,448.852325 3835.226807,429.238617 3851.881104,412.795593 
	C3870.685303,394.229645 3893.711182,384.795532 3919.066162,380.063354 
	C3929.741943,378.070892 3940.550537,376.789246 3951.599854,375.139526 
	C3951.894043,364.639893 3952.359131,354.838776 3951.399414,344.972778 
	C3851.170166,344.972778 3752.014648,344.972778 3652.426270,344.972778 
	C3652.426270,355.399139 3652.426270,365.210602 3652.426270,375.426727 
	C3654.870850,375.733765 3656.790283,375.998108 3658.715576,376.213135 
	C3680.899902,378.690857 3703.081055,381.232330 3724.069824,389.523560 
	C3754.455078,401.526794 3773.953125,422.771454 3780.632812,455.346008 
	C3786.224609,482.614319 3787.387207,510.304565 3787.379883,537.868408 
	C3787.342773,677.165466 3786.756592,816.464111 3785.724854,955.757507 
	C3785.555176,978.658081 3783.168457,1001.662537 3780.139160,1024.396851 
	C3773.627930,1073.261475 3752.066406,1115.275879 3717.271973,1149.838867 
	C3680.185303,1186.678833 3634.379883,1208.654053 3584.324707,1221.791626 
	C3537.415283,1234.103638 3489.709961,1236.043579 3441.585449,1230.313477 
	C3390.687744,1224.253296 3344.755615,1206.975708 3306.109131,1172.296631 
	C3274.676270,1144.090820 3252.797852,1110.601318 3245.320557,1068.295166 
	C3237.932129,1026.493530 3234.888916,984.263611 3234.538086,942.023743 
	C3233.512207,818.386658 3233.593262,694.738770 3233.669434,571.095337 
	C3233.691650,535.456238 3234.899414,499.808960 3236.124023,464.184723 
	C3236.522949,452.587738 3237.750732,440.842010 3240.246338,429.527618 
	C3247.594971,396.213562 3263.916748,383.991241 3292.214844,379.760681 
	C3315.048340,376.347168 3337.978271,375.824615 3360.975342,375.886688 
	C3364.508545,375.896240 3368.042236,375.636475 3372.191895,375.477692 
	C3372.191895,369.432709 3372.252930,364.469116 3372.174561,359.507751 
	C3372.097900,354.665100 3371.878906,349.824677 3371.718994,344.880554 
	C3234.709961,344.880554 3098.868896,344.880554 2962.418213,344.880554 
	C2962.418213,355.178009 2962.418213,364.960449 2962.418213,375.949860 
	C2972.081543,375.949860 2981.319824,375.919647 2990.558105,375.955933 
	C3011.908203,376.039703 3033.140381,377.283966 3054.089355,381.855621 
	C3072.968750,385.975647 3086.004883,397.156708 3091.891357,415.251923 
	C3095.766846,427.166351 3098.801514,439.759308 3099.550293,452.208588 
	C3101.629395,486.779999 3103.232910,521.431152 3103.385010,556.057983 
	C3103.863770,665.036865 3103.590820,774.019104 3103.609375,885.000000 
M4235.666504,1251.385010 
	C4268.053711,1266.185547 4301.892090,1275.333374 4337.433594,1278.510620 
	C4384.402832,1282.709595 4430.835449,1279.927246 4475.727539,1265.274780 
	C4558.172363,1238.365356 4614.653320,1184.234741 4641.045898,1100.924805 
	C4654.308594,1059.062988 4656.443848,1015.900146 4650.268555,972.434082 
	C4638.929688,892.624451 4599.458984,831.227722 4529.851074,789.869690 
	C4489.703613,766.016113 4447.452637,746.233276 4405.319824,726.233765 
	C4370.421875,709.668701 4335.298828,693.536926 4300.848633,676.082031 
	C4266.924316,658.893860 4234.615723,638.988770 4205.644043,613.979919 
	C4152.096680,567.757202 4141.875488,498.732239 4166.170410,444.324677 
	C4182.505859,407.743256 4207.938477,380.240601 4247.546875,368.523529 
	C4278.365234,359.406769 4309.839355,357.834961 4341.530273,362.665863 
	C4393.847168,370.641022 4436.202148,396.658173 4471.364258,435.388916 
	C4504.999023,472.437347 4526.113281,516.190125 4540.072266,563.767639 
	C4542.119629,570.745178 4544.082031,577.747375 4546.059082,584.652588 
	C4555.902832,584.652588 4565.031738,584.652588 4574.589844,584.652588 
	C4574.589844,504.448029 4574.589844,424.988220 4574.589844,344.975067 
	C4564.797852,344.975067 4555.685547,344.975067 4546.087891,344.975067 
	C4542.132324,375.017731 4531.289062,401.495361 4511.670898,424.084656 
	C4500.577637,413.249237 4490.560059,403.008118 4480.049805,393.300262 
	C4462.103516,376.724060 4442.803711,361.824860 4420.320312,351.925720 
	C4366.367188,328.170807 4310.010254,322.136444 4252.153809,331.931244 
	C4186.436035,343.056976 4135.437012,377.558075 4099.642578,433.454224 
	C4065.104004,487.389343 4058.438232,546.967041 4071.136475,608.438965 
	C4085.885254,679.837463 4125.390625,735.003845 4187.370117,773.672119 
	C4235.259277,803.549866 4286.283691,827.339966 4337.784180,850.138428 
	C4381.370117,869.433289 4424.614258,889.379089 4464.748535,915.366028 
	C4485.512695,928.810791 4505.452637,943.365784 4521.222168,962.698608 
	C4551.082520,999.304749 4560.865723,1041.446289 4556.570801,1088.015869 
	C4551.298828,1145.181396 4503.924316,1217.827271 4429.830078,1238.166016 
	C4398.315430,1246.816650 4366.396973,1249.365479 4333.849121,1246.386841 
	C4298.448242,1243.147095 4265.281738,1233.410889 4234.885254,1214.745850 
	C4198.175781,1192.204712 4171.056152,1160.671021 4149.699219,1123.775757 
	C4124.590332,1080.399414 4109.158203,1033.396606 4097.914551,984.843567 
	C4095.899902,976.144531 4093.955811,967.429138 4092.033447,958.960083 
	C4080.754395,958.960083 4070.293701,958.960083 4059.977051,958.960083 
	C4057.966064,971.015747 4058.436279,1245.905273 4060.458008,1253.511719 
	C4070.608643,1253.511719 4080.865479,1253.511719 4091.825439,1253.511719 
	C4092.620850,1250.220337 4093.444580,1247.068237 4094.141357,1243.888184 
	C4099.359863,1220.061890 4106.104004,1196.763794 4118.059082,1175.296143 
	C4119.919922,1171.954712 4122.160645,1168.825195 4124.794922,1164.707886 
	C4156.440918,1201.046265 4191.817871,1230.477417 4235.666504,1251.385010 
M4762.066406,1410.802856 
	C4761.487305,1409.603516 4760.903320,1408.406616 4760.330078,1407.204224 
	C4744.852539,1374.747925 4729.534180,1342.214111 4713.838867,1309.863037 
	C4704.464844,1290.542114 4688.519043,1281.571167 4667.139648,1281.667603 
	C4657.816406,1281.709717 4649.585449,1285.094727 4641.442383,1288.971313 
	C4614.086914,1301.994019 4586.756836,1315.070190 4559.406738,1328.104248 
	C4497.792480,1357.467407 4436.111328,1386.690918 4374.642090,1416.354736 
	C4367.930176,1419.593872 4361.331543,1424.420410 4356.572266,1430.096680 
	C4342.951172,1446.341919 4340.442871,1464.699585 4349.639648,1484.156738 
	C4361.164062,1508.538330 4372.788574,1532.872070 4384.389648,1557.217285 
	C4400.574707,1591.181274 4416.810547,1625.120728 4432.955566,1659.103516 
	C4439.631348,1673.154541 4450.157715,1682.786255 4465.254395,1686.715942 
	C4478.278320,1690.105957 4490.799805,1688.317505 4503.078125,1682.437622 
	C4566.737793,1651.951172 4630.521973,1621.724243 4694.254395,1591.389526 
	C4720.107910,1579.084106 4745.799805,1566.429810 4771.819336,1554.488281 
	C4798.679688,1542.160645 4811.041504,1511.380981 4797.183105,1484.233276 
	C4785.077148,1460.519409 4774.142090,1436.207642 4762.066406,1410.802856 
M2622.192627,1429.130249 
	C2595.481934,1443.124634 2577.904541,1464.913818 2568.120605,1493.131714 
	C2560.904297,1513.944702 2559.078369,1535.474365 2562.198486,1557.181274 
	C2568.449707,1600.668701 2590.734131,1632.568848 2631.749023,1650.073730 
	C2656.671387,1660.710693 2682.764404,1662.713867 2709.162109,1657.737427 
	C2750.075195,1650.024536 2781.061768,1628.481689 2798.025879,1589.615967 
	C2812.098633,1557.374634 2812.270508,1524.061157 2801.042480,1491.106567 
	C2789.106445,1456.074219 2764.932373,1432.272583 2729.497559,1421.287354 
	C2693.482910,1410.122559 2657.891113,1412.025513 2622.192627,1429.130249 
M3318.660889,1521.433716 
	C3327.484375,1505.809570 3328.112061,1488.832886 3325.239014,1471.903076 
	C3321.512695,1449.945679 3307.478271,1436.013306 3287.105469,1428.135254 
	C3272.301514,1422.410767 3256.735840,1420.711426 3241.052490,1420.518555 
	C3216.412842,1420.215210 3191.767090,1420.402222 3167.123779,1420.429077 
	C3164.543701,1420.431885 3161.964111,1420.755493 3159.545166,1420.919312 
	C3157.450195,1432.098511 3157.853271,1646.426270 3159.825439,1653.361206 
	C3173.031250,1653.361206 3186.183838,1653.361206 3200.425049,1653.361206 
	C3200.425049,1620.522949 3200.425049,1588.397339 3200.425049,1555.531860 
	C3208.483887,1555.531860 3215.467285,1555.941284 3222.378662,1555.411499 
	C3228.700195,1554.927002 3231.903076,1557.672607 3234.709961,1563.024780 
	C3243.984131,1580.708496 3253.726318,1598.147217 3263.319580,1615.663208 
	C3270.328369,1628.460938 3277.385742,1641.231812 3284.208740,1653.627808 
	C3301.007812,1653.627808 3316.863281,1653.627808 3334.316650,1653.627808 
	C3313.660400,1619.114380 3293.621338,1585.632446 3273.458740,1551.944336 
	C3301.573975,1542.652222 3307.014893,1539.030396 3318.660889,1521.433716 
M3509.385010,1619.697876 
	C3515.632080,1631.054443 3521.879150,1642.411133 3528.303955,1654.090942 
	C3536.678711,1654.090942 3544.643555,1654.128296 3552.607666,1654.080566 
	C3560.673096,1654.032104 3568.738037,1653.899414 3578.296387,1653.786011 
	C3557.345459,1618.825562 3537.399414,1585.542114 3517.025635,1551.544434 
	C3522.108154,1550.141724 3525.901855,1549.236938 3529.604492,1548.048462 
	C3547.596680,1542.273315 3559.806641,1530.464844 3566.442383,1512.762329 
	C3569.906738,1503.520264 3570.503906,1493.965942 3570.310059,1484.246704 
	C3569.761719,1456.785034 3556.180176,1437.588501 3530.438477,1427.914551 
	C3516.204102,1422.565308 3501.313721,1420.784912 3486.309570,1420.553833 
	C3460.988525,1420.163940 3435.657715,1420.397827 3410.331055,1420.444336 
	C3407.798828,1420.448975 3405.267822,1420.970337 3402.902344,1421.233398 
	C3401.009033,1440.625366 3401.828125,1646.301270 3403.733398,1653.377686 
	C3416.908203,1653.377686 3430.058350,1653.377686 3444.331055,1653.377686 
	C3444.331055,1620.543457 3444.331055,1588.403931 3444.331055,1555.532837 
	C3452.087158,1555.532837 3458.745117,1555.955322 3465.323486,1555.413452 
	C3471.852783,1554.875610 3475.586670,1557.101807 3478.669434,1563.065796 
	C3488.302490,1581.702881 3498.594971,1599.999268 3509.385010,1619.697876 
M4011.835205,1501.000000 
	C4011.957764,1551.278320 4012.079346,1601.556641 4012.220703,1651.835083 
	C4012.221680,1652.117798 4012.468750,1652.419922 4012.651855,1652.676514 
	C4012.843750,1652.945679 4013.097656,1653.170532 4013.297852,1653.386230 
	C4026.499023,1653.386230 4039.627686,1653.386230 4053.887695,1653.386230 
	C4053.887695,1620.589844 4053.887695,1588.477417 4053.887695,1555.531250 
	C4061.286377,1555.531250 4067.598389,1555.999390 4073.810059,1555.409302 
	C4081.096924,1554.716919 4085.052734,1557.443237 4088.517578,1563.998535 
	C4103.137695,1591.658936 4118.615234,1618.865723 4133.265137,1646.510742 
	C4136.408691,1652.442871 4139.886719,1654.588623 4146.458984,1654.241577 
	C4157.086914,1653.680664 4167.765625,1654.132202 4178.422363,1654.060059 
	C4180.892090,1654.043335 4183.359863,1653.640015 4187.385254,1653.272583 
	C4166.729004,1618.783569 4146.843262,1585.581299 4126.442871,1551.520020 
	C4129.731934,1550.645386 4131.550293,1550.133911 4133.381836,1549.678833 
	C4159.503418,1543.189453 4175.021484,1526.397949 4178.980957,1500.091309 
	C4184.547852,1463.098633 4169.234863,1435.610107 4133.160156,1425.978394 
	C4121.065430,1422.749146 4108.285645,1421.092896 4095.755859,1420.691284 
	C4070.470703,1419.880859 4045.142334,1420.398926 4019.831787,1420.446289 
	C4017.328369,1420.450928 4014.825684,1420.990723 4011.835205,1421.338989 
	C4011.835205,1447.758301 4011.835205,1473.379150 4011.835205,1501.000000 
M3853.001221,1458.208252 
	C3877.950928,1458.208252 3902.900635,1458.208252 3928.884521,1458.208252 
	C3928.963135,1445.279785 3929.497070,1433.176514 3928.624512,1421.116821 
	C3876.546387,1421.116821 3825.725830,1421.116821 3774.760742,1421.116821 
	C3774.760742,1498.954590 3774.760742,1576.079224 3774.760742,1653.488525 
	C3828.234375,1653.488525 3881.033936,1653.488525 3934.595215,1653.488525 
	C3935.031250,1640.821411 3935.412842,1628.776611 3934.379639,1616.344116 
	C3894.156738,1616.102661 3855.336426,1616.456787 3816.591797,1616.139648 
	C3816.591797,1594.571167 3816.591797,1574.426758 3816.591797,1553.317261 
	C3852.142822,1553.317261 3886.985352,1553.317261 3922.473145,1553.317261 
	C3922.473145,1540.526978 3922.473145,1528.711426 3922.473145,1515.666748 
	C3886.986328,1515.666748 3851.872559,1515.666748 3816.549072,1515.666748 
	C3816.549072,1495.987427 3816.549072,1477.537231 3816.549072,1458.208374 
	C3828.474365,1458.208374 3839.738525,1458.208374 3853.001221,1458.208252 
M3030.714111,1645.824097 
	C3058.782959,1627.428223 3071.242188,1600.703003 3071.446777,1567.906860 
	C3071.735352,1521.589111 3071.540039,1475.268311 3071.502930,1428.948730 
	C3071.500732,1426.393188 3071.055420,1423.837891 3070.792969,1421.027832 
	C3057.015625,1421.027832 3043.870361,1421.027832 3029.746338,1421.027832 
	C3029.746338,1424.883179 3029.746338,1428.144043 3029.746338,1431.404785 
	C3029.746338,1449.732666 3029.747803,1468.060547 3029.746094,1486.388428 
	C3029.743652,1513.047119 3029.912842,1539.707397 3029.687256,1566.364258 
	C3029.450928,1594.257812 3014.433350,1614.304077 2990.033203,1619.112305 
	C2983.908203,1620.319214 2977.395996,1620.444458 2971.145264,1619.968384 
	C2950.590088,1618.402588 2935.875488,1608.014282 2929.090820,1588.475220 
	C2926.320312,1580.496460 2925.443848,1571.529663 2925.374268,1562.998901 
	C2925.019287,1519.348145 2925.220215,1475.692871 2925.185791,1432.039185 
	C2925.182861,1428.480347 2924.871094,1424.921631 2924.691162,1421.118408 
	C2910.584473,1421.118408 2897.459717,1421.118408 2883.548340,1421.118408 
	C2883.548340,1425.450195 2883.548340,1429.074951 2883.548340,1432.699707 
	C2883.548340,1463.357300 2883.520264,1494.014771 2883.559570,1524.672363 
	C2883.582275,1542.332642 2882.897461,1560.042847 2883.976074,1577.641968 
	C2885.938477,1609.656494 2900.889893,1634.430908 2929.817871,1648.840454 
	C2963.066162,1665.401978 2996.631592,1664.235840 3030.714111,1645.824097 
M2301.863770,1508.988281 
	C2300.884033,1516.911011 2299.309082,1524.813110 2299.031738,1532.760376 
	C2298.041748,1561.130493 2304.339844,1587.570923 2320.686523,1611.269775 
	C2356.518066,1663.216919 2433.085205,1672.434204 2480.308105,1645.332520 
	C2491.630371,1638.834595 2501.346924,1630.320679 2508.978516,1618.199219 
	C2497.662842,1610.129639 2486.629883,1602.261597 2476.092285,1594.746826 
	C2468.388184,1601.251587 2461.843750,1608.073486 2454.118164,1613.067871 
	C2426.079834,1631.193237 2383.988037,1621.690918 2362.223389,1594.789551 
	C2338.519043,1565.490845 2336.097168,1519.872681 2355.994141,1487.805664 
	C2379.878174,1449.312622 2439.487305,1439.037598 2468.950195,1472.797729 
	C2469.583496,1473.523315 2470.501221,1474.000610 2472.111816,1475.217163 
	C2482.552734,1467.556885 2493.144043,1459.786255 2503.981934,1451.834595 
	C2495.818848,1442.090820 2487.420654,1434.575562 2477.529297,1428.838501 
	C2451.704346,1413.859497 2423.816406,1411.549805 2395.282959,1417.200317 
	C2345.099365,1427.137939 2314.213135,1457.676270 2301.863770,1508.988281 
M3686.616455,1455.002686 
	C3686.616455,1443.798462 3686.616455,1432.594238 3686.616455,1420.976318 
	C3672.393311,1420.976318 3659.573730,1420.976318 3646.866943,1420.976318 
	C3644.657959,1432.090210 3645.137939,1646.511597 3647.248047,1653.389526 
	C3660.116211,1653.389526 3672.947754,1653.389526 3686.616943,1653.389526 
	C3686.616943,1587.468262 3686.616943,1522.234741 3686.616455,1455.002686 
z"/>
<path fill="#2EAFE6" opacity="1.000000" stroke="none" 
	d="
M2.000001,750.937317 
	C3.250628,744.655273 5.212038,739.366760 5.640440,733.956909 
	C9.366506,686.904419 18.910927,641.056702 34.029114,596.395935 
	C64.287415,507.009521 113.004189,429.159241 181.538589,364.186310 
	C261.315735,288.554810 355.292664,239.848618 464.041931,222.823914 
	C614.120850,199.329041 750.931152,233.764221 871.676147,325.875183 
	C983.390686,411.097198 1052.127319,524.447876 1082.218872,661.465576 
	C1091.692871,704.603882 1096.174072,748.334473 1095.148071,792.408081 
	C1092.045654,925.669312 1050.446411,1045.514404 966.391907,1149.415405 
	C889.781616,1244.114502 792.258850,1307.131714 673.656250,1336.590698 
	C628.147644,1347.894287 581.826538,1353.150879 535.005188,1351.456665 
	C410.808319,1346.962891 300.581879,1305.027954 205.790268,1224.579468 
	C105.464653,1139.434204 42.756470,1031.458008 16.017895,902.814758 
	C10.410685,875.837646 8.013971,848.193481 4.118828,820.859436 
	C3.932454,819.551575 3.561160,818.270142 2.637990,816.488159 
	C2.000000,794.624878 2.000000,773.249756 2.000001,750.937317 
M566.195618,713.000000 
	C566.195618,736.205688 566.195618,759.411316 566.195618,782.343445 
	C578.382446,784.507324 831.554382,784.098572 839.727356,781.905640 
	C838.928589,692.214294 827.812134,603.953735 800.707336,518.389526 
	C779.364929,516.481873 574.389954,517.311462 566.195801,519.421265 
	C566.195801,583.140625 566.195801,647.070312 566.195618,713.000000 
M532.135925,719.000000 
	C532.135925,652.183838 532.135925,585.367676 532.135925,518.230835 
	C453.330048,518.230835 375.872711,518.230835 297.788605,518.230835 
	C271.072327,604.623901 258.918976,692.666870 259.359161,783.160645 
	C350.782990,783.160645 440.873962,783.160645 532.136047,783.160645 
	C532.136047,762.094849 532.136047,741.547424 532.135925,719.000000 
M821.881897,966.663269 
	C831.166870,917.728882 837.772034,868.520813 838.454773,818.732727 
	C821.010803,816.647156 573.940552,817.407349 566.916687,819.385071 
	C566.916687,896.158691 566.916687,972.923889 566.916687,1049.810059 
	C645.091187,1049.810059 722.545349,1049.810059 800.388245,1049.810059 
	C809.264648,1022.772522 815.625671,995.609741 821.881897,966.663269 
M394.999969,1050.460693 
	C439.982513,1050.319458 484.965027,1050.179077 529.947571,1050.018433 
	C530.226807,1050.017334 530.533508,1049.768311 530.776001,1049.571655 
	C531.031311,1049.364624 531.224854,1049.081421 531.445435,1048.831543 
	C533.253906,1031.815308 532.504883,825.607239 530.608704,818.474365 
	C512.091858,816.478577 267.275360,817.370117 259.676086,819.648987 
	C262.699127,897.978210 274.467438,974.915527 298.340027,1050.461182 
	C330.423676,1050.461182 361.711792,1050.461182 394.999969,1050.460693 
M106.999977,783.701843 
	C145.857773,783.701843 184.715576,783.701843 224.553864,783.701843 
	C225.540558,693.066345 236.095337,604.886230 261.966705,518.459900 
	C259.183380,518.147217 257.258209,517.743591 255.332718,517.742126 
	C207.718887,517.705688 160.104141,517.851135 112.492271,517.543945 
	C106.139000,517.502991 103.837288,520.748230 101.376740,525.385559 
	C83.059258,559.907898 68.744308,596.023865 58.075367,633.593872 
	C47.220810,671.817505 41.087013,710.867188 38.441639,750.455444 
	C37.721226,761.236450 38.332302,772.106445 38.332302,783.701599 
	C61.162571,783.701599 83.081268,783.701599 106.999977,783.701843 
M1050.695068,783.701660 
	C1053.837769,783.495972 1056.980469,783.290222 1060.741821,783.044067 
	C1060.631958,688.103882 1038.042603,600.290039 993.283325,518.347778 
	C940.976013,518.347778 889.505188,518.347778 836.658813,518.347778 
	C862.301514,605.236023 873.264954,693.353638 873.986084,783.701599 
	C932.976318,783.701599 990.863403,783.701599 1050.695068,783.701660 
M995.000000,817.783875 
	C954.768738,817.783875 914.537476,817.783875 873.231201,817.783875 
	C870.200256,897.015320 858.889648,974.085266 836.395630,1049.799561 
	C839.278381,1050.079468 841.226562,1050.432617 843.174988,1050.433838 
	C890.462402,1050.465332 937.750427,1050.338623 985.036316,1050.610229 
	C991.051086,1050.644775 993.808716,1048.239502 996.429016,1043.326416 
	C1029.552979,981.216736 1049.637695,915.097839 1057.698853,845.262390 
	C1058.712158,836.484070 1059.109009,827.634521 1059.871460,817.783630 
	C1038.145874,817.783630 1017.572937,817.783630 995.000000,817.783875 
M62.004623,946.910278 
	C72.313965,980.443604 85.994705,1012.555481 102.297447,1043.606812 
	C104.990326,1048.735840 108.160355,1050.612183 113.947510,1050.585205 
	C160.943878,1050.365479 207.941727,1050.471802 254.939041,1050.421143 
	C257.092377,1050.418823 259.245148,1049.866333 262.103180,1049.473022 
	C239.752975,973.737671 228.243057,896.973511 225.397552,818.401428 
	C162.854233,818.401428 101.068916,818.401428 38.803101,818.401428 
	C41.376175,862.076904 48.977257,904.162048 62.004623,946.910278 
M572.710999,251.775360 
	C570.827576,251.895554 568.944153,252.015732 567.184082,252.128036 
	C565.237976,265.765533 565.834290,475.917908 567.822876,483.165833 
	C640.895447,483.165833 714.037170,483.165833 788.172668,483.165833 
	C787.064880,479.696228 786.445862,476.833923 785.270203,474.222198 
	C776.119080,453.893127 767.721497,433.165192 757.458191,413.408722 
	C735.351074,370.853241 708.075012,331.979401 671.525146,300.311035 
	C643.340759,275.890778 611.790833,258.105713 572.710999,251.775360 
M786.065613,1090.987915 
	C786.515625,1089.161133 786.965637,1087.334229 787.484863,1085.226196 
	C713.632507,1085.226196 640.503357,1085.226196 566.783569,1085.226196 
	C566.783569,1162.348755 566.783569,1238.799316 566.783569,1316.069580 
	C570.239136,1315.700562 573.165039,1315.556152 576.028748,1315.055908 
	C602.384399,1310.453125 626.254700,1299.850830 648.265930,1284.861084 
	C681.257385,1262.393555 707.299683,1233.174561 729.669067,1200.479980 
	C752.726562,1166.779541 770.674255,1130.399414 786.065613,1090.987915 
M367.000000,483.648438 
	C421.802795,483.648438 476.605621,483.648438 531.402222,483.648438 
	C531.402222,405.479248 531.402222,328.758179 531.402222,251.450836 
	C518.192383,252.009308 506.419281,255.372818 494.836884,259.543152 
	C454.499146,274.067139 422.700073,300.433289 395.222290,332.411560 
	C358.115112,375.596283 332.204926,425.310913 311.838348,478.134460 
	C311.276825,479.590790 311.082611,481.188751 310.495819,483.648132 
	C329.180176,483.648132 347.090088,483.648132 367.000000,483.648438 
M532.142334,1271.000000 
	C532.142334,1209.160522 532.142334,1147.321167 532.142334,1085.691284 
	C517.898499,1083.643921 318.639160,1084.195435 311.020050,1086.251709 
	C311.739502,1088.412354 312.259247,1090.633057 313.189575,1092.665894 
	C323.298462,1114.754517 332.616943,1137.258423 343.817322,1158.781982 
	C363.150269,1195.933716 387.274658,1229.821899 417.879272,1258.703979 
	C447.495392,1286.653198 481.064362,1307.503906 521.830200,1314.908325 
	C524.932190,1315.471802 528.116272,1315.583374 532.142395,1315.994873 
	C532.142395,1300.879883 532.142395,1286.939819 532.142334,1271.000000 
M969.901184,483.321411 
	C968.570374,480.151367 967.735718,476.641785 965.833801,473.862579 
	C940.323792,436.586121 910.651733,402.983521 876.429932,373.457947 
	C824.118896,328.325531 765.359253,294.593231 699.440857,273.567322 
	C697.516235,272.953430 695.463196,272.742188 691.828003,272.014526 
	C693.999390,274.294128 694.821655,275.318420 695.800415,276.161011 
	C713.288208,291.214844 728.511658,308.366638 742.576599,326.592316 
	C777.065186,371.283508 801.907776,421.157562 821.663452,473.767792 
	C822.910034,477.087372 824.341187,480.337585 825.686707,483.620697 
	C873.919617,483.620697 921.181885,483.620697 969.901184,483.321411 
M352.269623,331.324280 
	C357.881073,324.303497 363.316528,317.132172 369.154449,310.305023 
	C374.776550,303.730316 380.654846,297.354462 386.715088,291.180267 
	C392.724915,285.057465 399.102081,279.295197 405.318146,273.374786 
	C324.523132,296.840790 255.362259,339.015564 196.092621,397.568542 
	C165.021149,428.264282 131.560715,471.098236 128.936981,483.043945 
	C177.061569,483.043945 225.165512,483.043945 272.127594,483.043945 
	C284.027313,456.294922 294.939941,430.211060 307.151764,404.750366 
	C319.403595,379.206146 334.458313,355.212402 352.269623,331.324280 
M827.974121,1231.015625 
	C893.044739,1188.049805 953.702759,1117.874146 969.434998,1085.169556 
	C968.057190,1084.950562 966.832397,1084.586548 965.607422,1084.585693 
	C920.958862,1084.554810 876.310059,1084.635132 831.662231,1084.453125 
	C826.360962,1084.431519 824.110474,1086.720825 822.279724,1091.273560 
	C814.954346,1109.489502 807.955383,1127.879517 799.647888,1145.649902 
	C774.173096,1200.142700 741.762634,1249.824951 696.652161,1290.411255 
	C695.209534,1291.709229 694.000854,1293.267212 691.343018,1296.165039 
	C741.025757,1281.235840 785.320740,1259.526855 827.974121,1231.015625 
M341.755005,1221.248169 
	C312.686096,1179.045166 291.294434,1132.958740 273.788086,1085.268921 
	C224.937271,1085.268921 176.885513,1085.268921 127.277664,1085.268921 
	C168.541702,1147.557007 219.331680,1198.058594 280.830597,1237.760254 
	C318.888184,1262.328857 359.417084,1281.600342 403.480377,1293.647461 
	C380.753998,1271.725098 360.387177,1248.161011 341.755005,1221.248169 
z"/>
<path fill="#2DAFE6" opacity="1.000000" stroke="none" 
	d="
M1374.000000,1263.517700 
	C1310.727661,1263.517456 1248.455322,1263.517456 1184.949829,1263.517456 
	C1184.194824,1252.932129 1184.289673,1243.171631 1185.005127,1232.013184 
	C1189.239380,1232.013184 1193.118652,1232.001099 1196.997925,1232.015137 
	C1218.986328,1232.094482 1240.950928,1232.242554 1262.732178,1228.214844 
	C1298.412964,1221.616943 1317.085938,1202.745728 1322.240601,1166.669922 
	C1324.073853,1153.838745 1325.471191,1140.855225 1325.768433,1127.911255 
	C1326.786133,1083.604004 1327.740479,1039.284302 1327.795044,994.968140 
	C1327.984253,841.312927 1327.980835,687.656738 1327.559937,534.002258 
	C1327.479614,504.715363 1325.312500,475.426849 1323.769287,446.156982 
	C1323.421387,439.560883 1322.041870,432.945282 1320.473267,426.500183 
	C1313.501465,397.852173 1299.085815,384.078369 1269.986328,380.230377 
	C1251.547485,377.792023 1232.859375,377.168579 1214.265503,376.010956 
	C1207.324951,375.578827 1200.334839,375.941040 1192.034180,375.941040 
	C1191.325928,365.328583 1191.454712,355.313812 1192.011597,344.752319 
	C1205.062256,343.914673 1217.286987,342.983734 1229.527588,342.372437 
	C1262.800781,340.710754 1296.069580,338.873993 1329.360474,337.672363 
	C1388.957397,335.521240 1448.562012,333.501129 1508.177368,331.975616 
	C1547.505005,330.969238 1586.824341,332.227295 1625.984131,336.225555 
	C1675.501953,341.281433 1724.298828,349.719635 1770.293091,369.905060 
	C1815.521240,389.754364 1853.615723,418.586243 1881.316284,459.964783 
	C1901.270874,489.772675 1910.938110,522.928162 1912.342651,558.739197 
	C1913.988892,600.712463 1905.817627,640.243042 1884.228394,676.565796 
	C1862.217529,713.598267 1831.650879,741.686401 1793.784180,761.953308 
	C1759.063110,780.536621 1721.799438,791.391479 1683.174927,798.044556 
	C1675.760132,799.321716 1668.344360,800.592896 1660.569336,801.928650 
	C1672.583984,811.643127 1684.325439,820.336304 1695.153198,830.048096 
	C1722.779419,854.827087 1747.041870,882.832642 1769.683472,912.091797 
	C1804.958130,957.676208 1839.098511,1004.136536 1874.092896,1049.940308 
	C1904.050781,1089.151855 1935.177856,1127.396973 1970.677734,1161.859985 
	C1998.620361,1188.986450 2030.508789,1209.489746 2067.968750,1220.935791 
	C2089.748291,1227.590576 2112.113281,1230.669312 2135.885010,1232.301392 
	C2136.706787,1242.215454 2136.183350,1252.053467 2136.201416,1262.649902 
	C2133.209717,1262.972900 2130.687988,1263.481689 2128.165771,1263.483154 
	C2052.837891,1263.525757 1977.509644,1263.429565 1902.182373,1263.670288 
	C1895.438354,1263.691772 1890.889282,1260.648560 1886.226074,1256.832520 
	C1865.500732,1239.872070 1847.457764,1220.247192 1830.145752,1199.943970 
	C1783.587280,1145.341187 1742.233643,1086.845459 1701.814575,1027.663940 
	C1662.695801,970.386047 1621.644409,914.574951 1576.205078,862.100647 
	C1569.885376,854.802734 1563.020630,847.975525 1556.379028,840.958130 
	C1547.633423,831.717773 1536.959839,826.100037 1524.528809,823.368774 
	C1510.203247,820.221375 1474.684448,818.774170 1458.380371,821.246460 
	C1458.200195,823.983704 1457.841797,826.880432 1457.843140,829.777039 
	C1457.881470,911.437683 1457.626343,993.100586 1458.203735,1074.757690 
	C1458.406250,1103.377075 1460.058594,1132.029907 1462.305664,1160.568481 
	C1463.150635,1171.301392 1466.374390,1182.253540 1470.585449,1192.231323 
	C1479.711548,1213.854736 1497.937256,1224.519409 1520.284790,1227.712036 
	C1537.043701,1230.106079 1554.047363,1231.074097 1570.979980,1231.874023 
	C1584.898682,1232.531494 1598.873413,1232.008179 1613.394165,1232.008179 
	C1615.264282,1242.474854 1614.046509,1252.302734 1614.392700,1263.517944 
	C1534.078857,1263.517944 1454.539429,1263.517944 1374.000000,1263.517700 
M1457.815674,754.997253 
	C1457.815674,765.883484 1457.815674,776.769714 1457.815674,788.382996 
	C1462.670044,788.382996 1466.261230,788.510498 1469.840942,788.363037 
	C1502.776733,787.006287 1535.716064,785.724976 1568.642944,784.174500 
	C1597.343994,782.822937 1625.567993,778.294128 1653.034912,769.765869 
	C1687.505615,759.063110 1716.303955,740.395264 1735.943970,709.279053 
	C1748.892822,688.763855 1757.489746,666.500000 1761.953125,642.710144 
	C1767.756592,611.779236 1769.026855,580.631348 1766.248291,549.243530 
	C1763.552734,518.794861 1756.942627,489.431854 1743.729126,461.763855 
	C1728.611572,430.109436 1707.224487,404.408539 1673.652588,391.238861 
	C1660.376831,386.030975 1646.758301,381.277069 1632.889893,378.073334 
	C1576.881226,365.134796 1520.078369,364.321136 1463.050659,368.517426 
	C1461.495483,368.631836 1459.993286,369.468445 1457.815430,370.181427 
	C1457.815430,497.886658 1457.815430,625.442261 1457.815674,754.997253 
z"/>
<path fill="#2DAFE6" opacity="1.000000" stroke="none" 
	d="
M2170.590820,1240.463623 
	C2170.864990,1237.302124 2171.138184,1235.064209 2171.510254,1232.015869 
	C2181.861816,1232.015869 2191.823975,1232.456421 2201.732666,1231.918823 
	C2219.328369,1230.964478 2237.046143,1230.463013 2254.436279,1227.897583 
	C2289.521973,1222.721680 2310.156982,1200.759399 2313.955322,1165.352173 
	C2315.978027,1146.498779 2317.734131,1127.514404 2317.864014,1108.577271 
	C2318.683838,988.931580 2319.053711,869.282654 2319.484131,749.634583 
	C2319.625732,710.305298 2319.719482,670.973694 2319.452148,631.645752 
	C2319.125732,583.657532 2318.856689,535.660034 2317.613770,487.691162 
	C2317.115234,468.453735 2314.115479,449.279236 2312.178223,430.083740 
	C2311.979980,428.118042 2311.271240,426.202057 2310.779541,424.268066 
	C2304.235352,398.532166 2288.086914,383.133972 2261.506348,380.221405 
	C2242.338867,378.121033 2223.037842,377.176788 2203.778564,376.006836 
	C2196.491211,375.564117 2189.154541,375.934967 2180.581055,375.934967 
	C2179.617432,365.663147 2180.262207,355.829559 2180.149658,345.008881 
	C2183.380371,344.713257 2186.217529,344.289185 2189.063721,344.218140 
	C2224.708984,343.328766 2260.361816,342.696442 2296.000244,341.594849 
	C2363.272461,339.515533 2430.523682,336.343964 2497.809570,335.301453 
	C2530.036133,334.802124 2562.352051,337.677765 2594.572266,339.848389 
	C2626.853516,342.023102 2658.641113,347.768921 2689.928467,356.036652 
	C2728.223145,366.156158 2764.633301,380.523346 2796.291748,405.020874 
	C2838.582031,437.745850 2860.646484,481.090851 2864.348877,534.300537 
	C2866.148926,560.168884 2864.295654,585.577820 2857.132324,610.456665 
	C2845.508545,650.826965 2821.114746,682.063354 2787.273682,706.316223 
	C2754.843506,729.557861 2718.383789,743.895203 2680.134033,753.923645 
	C2660.851074,758.979431 2641.245361,762.804688 2619.746338,767.645508 
	C2624.797607,768.578918 2628.255859,769.484863 2631.768799,769.826294 
	C2671.347900,773.673279 2710.179443,781.100769 2747.764893,794.296936 
	C2787.280029,808.170776 2822.870850,828.409973 2852.078369,859.013428 
	C2890.298096,899.059753 2910.461426,946.552490 2912.373047,1001.960693 
	C2913.896484,1046.116211 2906.764893,1088.401245 2885.184570,1127.324341 
	C2851.599854,1187.899048 2801.090332,1227.043579 2733.754639,1243.868774 
	C2696.170654,1253.259888 2657.809814,1257.487915 2619.220459,1260.210205 
	C2567.971436,1263.825439 2516.661133,1263.531006 2465.345703,1263.523682 
	C2371.687500,1263.510376 2278.029541,1263.519897 2184.371338,1263.519897 
	C2180.402100,1263.519897 2176.432617,1263.519897 2172.303711,1263.519897 
	C2169.167969,1255.913452 2171.207520,1248.534058 2170.590820,1240.463623 
M2449.407471,842.999939 
	C2449.407471,895.301758 2449.067627,947.606506 2449.509521,999.904602 
	C2449.903320,1046.525635 2450.775879,1093.151978 2452.284912,1139.748535 
	C2452.711670,1152.921875 2454.818604,1166.368042 2458.425781,1179.042847 
	C2465.759521,1204.811523 2482.507568,1221.499390 2509.753418,1226.203125 
	C2552.697998,1233.616943 2595.322266,1232.062134 2637.410400,1220.817505 
	C2694.641357,1205.527222 2733.687012,1169.991333 2754.022217,1114.223755 
	C2762.633545,1090.608521 2766.906982,1066.103149 2768.850830,1041.088623 
	C2771.943115,1001.294373 2770.406006,961.847778 2759.526611,923.249329 
	C2743.272705,865.581909 2707.462402,826.268799 2649.963135,807.189758 
	C2615.214844,795.659790 2579.448486,790.069275 2543.143066,788.412537 
	C2515.220215,787.138306 2487.198730,788.011780 2459.220947,787.999634 
	C2456.308350,787.998413 2453.395508,788.469116 2449.406738,788.813904 
	C2449.406738,806.534058 2449.406738,823.766968 2449.407471,842.999939 
M2453.687256,755.468384 
	C2477.320557,755.041992 2500.969238,755.013489 2524.582764,754.085571 
	C2552.247803,752.998596 2579.600098,749.120178 2606.374268,741.911072 
	C2628.705322,735.898315 2650.076172,727.585571 2668.327148,712.869324 
	C2693.472900,692.593567 2708.202148,665.618225 2715.763916,634.875305 
	C2728.391113,583.537537 2727.822021,531.847656 2715.544678,480.565155 
	C2707.411865,446.593872 2688.212646,419.633942 2659.524170,399.312347 
	C2635.907471,382.583252 2608.947754,376.025757 2581.051025,372.237640 
	C2543.637451,367.157196 2505.993896,367.250854 2468.348145,368.411896 
	C2462.174072,368.602325 2456.024902,369.590881 2449.407959,370.256470 
	C2449.407959,375.035461 2449.407959,378.670929 2449.407959,382.306396 
	C2449.407959,502.576782 2449.407471,622.847168 2449.411133,743.117554 
	C2449.411133,745.782166 2449.200684,748.484985 2449.587402,751.096130 
	C2449.799805,752.528870 2451.056152,753.807007 2453.687256,755.468384 
z"/>
<path fill="#2DAFE6" opacity="1.000000" stroke="none" 
	d="
M3103.609131,884.000000 
	C3103.590820,774.019104 3103.863770,665.036865 3103.385010,556.057983 
	C3103.232910,521.431152 3101.629395,486.779999 3099.550293,452.208588 
	C3098.801514,439.759308 3095.766846,427.166351 3091.891357,415.251923 
	C3086.004883,397.156708 3072.968750,385.975647 3054.089355,381.855621 
	C3033.140381,377.283966 3011.908203,376.039703 2990.558105,375.955933 
	C2981.319824,375.919647 2972.081543,375.949860 2962.418213,375.949860 
	C2962.418213,364.960449 2962.418213,355.178009 2962.418213,344.880554 
	C3098.868896,344.880554 3234.709961,344.880554 3371.718994,344.880554 
	C3371.878906,349.824677 3372.097900,354.665100 3372.174561,359.507751 
	C3372.252930,364.469116 3372.191895,369.432709 3372.191895,375.477692 
	C3368.042236,375.636475 3364.508545,375.896240 3360.975342,375.886688 
	C3337.978271,375.824615 3315.048340,376.347168 3292.214844,379.760681 
	C3263.916748,383.991241 3247.594971,396.213562 3240.246338,429.527618 
	C3237.750732,440.842010 3236.522949,452.587738 3236.124023,464.184723 
	C3234.899414,499.808960 3233.691650,535.456238 3233.669434,571.095337 
	C3233.593262,694.738770 3233.512207,818.386658 3234.538086,942.023743 
	C3234.888916,984.263611 3237.932129,1026.493530 3245.320557,1068.295166 
	C3252.797852,1110.601318 3274.676270,1144.090820 3306.109131,1172.296631 
	C3344.755615,1206.975708 3390.687744,1224.253296 3441.585449,1230.313477 
	C3489.709961,1236.043579 3537.415283,1234.103638 3584.324707,1221.791626 
	C3634.379883,1208.654053 3680.185303,1186.678833 3717.271973,1149.838867 
	C3752.066406,1115.275879 3773.627930,1073.261475 3780.139160,1024.396851 
	C3783.168457,1001.662537 3785.555176,978.658081 3785.724854,955.757507 
	C3786.756592,816.464111 3787.342773,677.165466 3787.379883,537.868408 
	C3787.387207,510.304565 3786.224609,482.614319 3780.632812,455.346008 
	C3773.953125,422.771454 3754.455078,401.526794 3724.069824,389.523560 
	C3703.081055,381.232330 3680.899902,378.690857 3658.715576,376.213135 
	C3656.790283,375.998108 3654.870850,375.733765 3652.426270,375.426727 
	C3652.426270,365.210602 3652.426270,355.399139 3652.426270,344.972778 
	C3752.014648,344.972778 3851.170166,344.972778 3951.399414,344.972778 
	C3952.359131,354.838776 3951.894043,364.639893 3951.599854,375.139526 
	C3940.550537,376.789246 3929.741943,378.070892 3919.066162,380.063354 
	C3893.711182,384.795532 3870.685303,394.229645 3851.881104,412.795593 
	C3835.226807,429.238617 3825.659912,448.852325 3824.136475,472.024933 
	C3822.345459,499.265564 3820.372559,526.557312 3820.258789,553.834351 
	C3819.742920,677.477356 3820.109131,801.123962 3819.595703,924.766968 
	C3819.429932,964.729858 3817.324219,1004.676025 3811.794678,1044.334351 
	C3807.499268,1075.142456 3796.239746,1103.427856 3780.380371,1130.035400 
	C3754.664795,1173.178467 3719.438721,1206.275879 3675.406738,1230.260864 
	C3633.714600,1252.970947 3589.288086,1267.141357 3542.416992,1274.239380 
	C3496.362549,1281.213745 3450.161377,1281.883301 3403.902344,1277.718018 
	C3349.360840,1272.807007 3296.895752,1260.061279 3248.279297,1233.883789 
	C3212.377441,1214.552734 3180.483643,1190.406128 3155.766602,1157.494995 
	C3134.341309,1128.967285 3121.800781,1096.585327 3114.078369,1062.120483 
	C3107.062988,1030.810547 3103.777832,999.063599 3103.714600,966.983398 
	C3103.660889,939.655640 3103.643066,912.327820 3103.609131,884.000000 
z"/>
<path fill="#2DAFE6" opacity="1.000000" stroke="none" 
	d="
M4234.999512,1251.032959 
	C4191.817871,1230.477417 4156.440918,1201.046265 4124.794922,1164.707886 
	C4122.160645,1168.825195 4119.919922,1171.954712 4118.059082,1175.296143 
	C4106.104004,1196.763794 4099.359863,1220.061890 4094.141357,1243.888184 
	C4093.444580,1247.068237 4092.620850,1250.220337 4091.825439,1253.511719 
	C4080.865479,1253.511719 4070.608643,1253.511719 4060.458008,1253.511719 
	C4058.436279,1245.905273 4057.966064,971.015747 4059.977051,958.960083 
	C4070.293701,958.960083 4080.754395,958.960083 4092.033447,958.960083 
	C4093.955811,967.429138 4095.899902,976.144531 4097.914551,984.843567 
	C4109.158203,1033.396606 4124.590332,1080.399414 4149.699219,1123.775757 
	C4171.056152,1160.671021 4198.175781,1192.204712 4234.885254,1214.745850 
	C4265.281738,1233.410889 4298.448242,1243.147095 4333.849121,1246.386841 
	C4366.396973,1249.365479 4398.315430,1246.816650 4429.830078,1238.166016 
	C4503.924316,1217.827271 4551.298828,1145.181396 4556.570801,1088.015869 
	C4560.865723,1041.446289 4551.082520,999.304749 4521.222168,962.698608 
	C4505.452637,943.365784 4485.512695,928.810791 4464.748535,915.366028 
	C4424.614258,889.379089 4381.370117,869.433289 4337.784180,850.138428 
	C4286.283691,827.339966 4235.259277,803.549866 4187.370117,773.672119 
	C4125.390625,735.003845 4085.885254,679.837463 4071.136475,608.438965 
	C4058.438232,546.967041 4065.104004,487.389343 4099.642578,433.454224 
	C4135.437012,377.558075 4186.436035,343.056976 4252.153809,331.931244 
	C4310.010254,322.136444 4366.367188,328.170807 4420.320312,351.925720 
	C4442.803711,361.824860 4462.103516,376.724060 4480.049805,393.300262 
	C4490.560059,403.008118 4500.577637,413.249237 4511.670898,424.084656 
	C4531.289062,401.495361 4542.132324,375.017731 4546.087891,344.975067 
	C4555.685547,344.975067 4564.797852,344.975067 4574.589844,344.975067 
	C4574.589844,424.988220 4574.589844,504.448029 4574.589844,584.652588 
	C4565.031738,584.652588 4555.902832,584.652588 4546.059082,584.652588 
	C4544.082031,577.747375 4542.119629,570.745178 4540.072266,563.767639 
	C4526.113281,516.190125 4504.999023,472.437347 4471.364258,435.388916 
	C4436.202148,396.658173 4393.847168,370.641022 4341.530273,362.665863 
	C4309.839355,357.834961 4278.365234,359.406769 4247.546875,368.523529 
	C4207.938477,380.240601 4182.505859,407.743256 4166.170410,444.324677 
	C4141.875488,498.732239 4152.096680,567.757202 4205.644043,613.979919 
	C4234.615723,638.988770 4266.924316,658.893860 4300.848633,676.082031 
	C4335.298828,693.536926 4370.421875,709.668701 4405.319824,726.233765 
	C4447.452637,746.233276 4489.703613,766.016113 4529.851074,789.869690 
	C4599.458984,831.227722 4638.929688,892.624451 4650.268555,972.434082 
	C4656.443848,1015.900146 4654.308594,1059.062988 4641.045898,1100.924805 
	C4614.653320,1184.234741 4558.172363,1238.365356 4475.727539,1265.274780 
	C4430.835449,1279.927246 4384.402832,1282.709595 4337.433594,1278.510620 
	C4301.892090,1275.333374 4268.053711,1266.185547 4234.999512,1251.032959 
z"/>
<path fill="#30B0E6" opacity="1.000000" stroke="none" 
	d="
M4762.377930,1411.481445 
	C4774.142090,1436.207642 4785.077148,1460.519409 4797.183105,1484.233276 
	C4811.041504,1511.380981 4798.679688,1542.160645 4771.819336,1554.488281 
	C4745.799805,1566.429810 4720.107910,1579.084106 4694.254395,1591.389526 
	C4630.521973,1621.724243 4566.737793,1651.951172 4503.078125,1682.437622 
	C4490.799805,1688.317505 4478.278320,1690.105957 4465.254395,1686.715942 
	C4450.157715,1682.786255 4439.631348,1673.154541 4432.955566,1659.103516 
	C4416.810547,1625.120728 4400.574707,1591.181274 4384.389648,1557.217285 
	C4372.788574,1532.872070 4361.164062,1508.538330 4349.639648,1484.156738 
	C4340.442871,1464.699585 4342.951172,1446.341919 4356.572266,1430.096680 
	C4361.331543,1424.420410 4367.930176,1419.593872 4374.642090,1416.354736 
	C4436.111328,1386.690918 4497.792480,1357.467407 4559.406738,1328.104248 
	C4586.756836,1315.070190 4614.086914,1301.994019 4641.442383,1288.971313 
	C4649.585449,1285.094727 4657.816406,1281.709717 4667.139648,1281.667603 
	C4688.519043,1281.571167 4704.464844,1290.542114 4713.838867,1309.863037 
	C4729.534180,1342.214111 4744.852539,1374.747925 4760.330078,1407.204224 
	C4760.903320,1408.406616 4761.487305,1409.603516 4762.377930,1411.481445 
M4685.225586,1491.715820 
	C4662.947266,1482.459961 4640.668457,1473.203979 4618.272461,1463.899048 
	C4616.751465,1466.851074 4615.775391,1468.580078 4614.948730,1470.377930 
	C4608.830566,1483.683228 4602.894043,1497.074341 4596.590820,1510.291016 
	C4592.502930,1518.861450 4588.067871,1520.758667 4578.890137,1518.614380 
	C4573.709473,1517.404053 4568.576172,1515.994873 4563.413574,1514.705078 
	C4552.229004,1511.910522 4541.039062,1509.135010 4530.007812,1506.390747 
	C4521.853027,1526.181030 4484.862305,1654.887573 4485.221191,1661.825439 
	C4495.158691,1659.751343 4761.680664,1532.215088 4767.888672,1526.260010 
	C4740.601074,1514.834595 4713.628906,1503.541260 4685.225586,1491.715820 
M4634.492676,1367.499878 
	C4643.295410,1348.302002 4652.098145,1329.104126 4660.900879,1309.906250 
	C4660.283691,1309.322510 4659.666504,1308.738770 4659.048828,1308.154907 
	C4566.779297,1352.129272 4474.509766,1396.103638 4382.240234,1440.078003 
	C4382.320801,1440.841675 4382.401855,1441.605225 4382.482422,1442.368774 
	C4447.321777,1459.051392 4512.160645,1475.733887 4577.312500,1492.496948 
	C4596.516602,1450.557739 4615.214355,1409.724731 4634.492676,1367.499878 
M4379.791016,1467.618896 
	C4376.995117,1467.031738 4374.198730,1466.444702 4370.979980,1465.768799 
	C4373.400391,1477.057617 4454.168457,1645.896484 4460.110840,1651.912109 
	C4475.028809,1601.214600 4489.809082,1550.983154 4504.442871,1501.251587 
	C4502.983398,1499.979370 4502.557617,1499.306030 4501.994629,1499.160156 
	C4461.782715,1488.727661 4421.559082,1478.337158 4379.791016,1467.618896 
M4770.503906,1500.079712 
	C4771.958496,1500.560059 4773.412598,1501.040527 4775.212402,1501.634766 
	C4773.383301,1491.802368 4692.365723,1322.233887 4686.892090,1316.322876 
	C4680.673828,1324.791626 4631.272949,1433.752686 4630.313477,1441.542725 
	C4676.490234,1460.842407 4722.816406,1480.204224 4770.503906,1500.079712 
z"/>
<path fill="#2EAFE6" opacity="1.000000" stroke="none" 
	d="
M2622.845703,1428.765869 
	C2657.891113,1412.025513 2693.482910,1410.122559 2729.497559,1421.287354 
	C2764.932373,1432.272583 2789.106445,1456.074219 2801.042480,1491.106567 
	C2812.270508,1524.061157 2812.098633,1557.374634 2798.025879,1589.615967 
	C2781.061768,1628.481689 2750.075195,1650.024536 2709.162109,1657.737427 
	C2682.764404,1662.713867 2656.671387,1660.710693 2631.749023,1650.073730 
	C2590.734131,1632.568848 2568.449707,1600.668701 2562.198486,1557.181274 
	C2559.078369,1535.474365 2560.904297,1513.944702 2568.120605,1493.131714 
	C2577.904541,1464.913818 2595.481934,1443.124634 2622.845703,1428.765869 
M2747.352539,1592.238892 
	C2760.687500,1574.364624 2765.376465,1554.029419 2764.655762,1532.086792 
	C2763.223145,1488.475220 2735.980225,1457.616821 2692.710205,1452.888062 
	C2664.891602,1449.847778 2640.653564,1458.801270 2622.884766,1481.337891 
	C2606.490723,1502.130737 2601.762939,1526.132202 2605.909912,1551.948730 
	C2611.202148,1584.895508 2628.300293,1608.969238 2660.931641,1618.919678 
	C2692.176758,1628.447754 2726.093262,1619.304810 2747.352539,1592.238892 
z"/>
<path fill="#2EAFE6" opacity="1.000000" stroke="none" 
	d="
M3318.297119,1522.075928 
	C3307.014893,1539.030396 3301.573975,1542.652222 3273.458740,1551.944336 
	C3293.621338,1585.632446 3313.660400,1619.114380 3334.316650,1653.627808 
	C3316.863281,1653.627808 3301.007812,1653.627808 3284.208740,1653.627808 
	C3277.385742,1641.231812 3270.328369,1628.460938 3263.319580,1615.663208 
	C3253.726318,1598.147217 3243.984131,1580.708496 3234.709961,1563.024780 
	C3231.903076,1557.672607 3228.700195,1554.927002 3222.378662,1555.411499 
	C3215.467285,1555.941284 3208.483887,1555.531860 3200.425049,1555.531860 
	C3200.425049,1588.397339 3200.425049,1620.522949 3200.425049,1653.361206 
	C3186.183838,1653.361206 3173.031250,1653.361206 3159.825439,1653.361206 
	C3157.853271,1646.426270 3157.450195,1432.098511 3159.545166,1420.919312 
	C3161.964111,1420.755493 3164.543701,1420.431885 3167.123779,1420.429077 
	C3191.767090,1420.402222 3216.412842,1420.215210 3241.052490,1420.518555 
	C3256.735840,1420.711426 3272.301514,1422.410767 3287.105469,1428.135254 
	C3307.478271,1436.013306 3321.512695,1449.945679 3325.239014,1471.903076 
	C3328.112061,1488.832886 3327.484375,1505.809570 3318.297119,1522.075928 
M3205.624023,1456.235229 
	C3200.129883,1455.725342 3200.033203,1459.336792 3200.051025,1463.296509 
	C3200.129395,1480.615845 3200.094971,1497.935547 3200.168701,1515.254883 
	C3200.173828,1516.482788 3200.719971,1517.708496 3200.996094,1518.858521 
	C3217.040527,1518.858521 3232.611816,1519.046753 3248.173828,1518.742065 
	C3252.756348,1518.652466 3257.435791,1517.579712 3261.856689,1516.246948 
	C3276.402832,1511.860962 3283.085205,1502.647705 3283.218994,1487.462158 
	C3283.343262,1473.346191 3276.367432,1464.078003 3262.119873,1459.602539 
	C3259.596191,1458.809814 3256.971680,1457.983643 3254.364014,1457.873047 
	C3238.752197,1457.210205 3223.131348,1456.752075 3205.624023,1456.235229 
z"/>
<path fill="#2EAFE6" opacity="1.000000" stroke="none" 
	d="
M3509.008301,1619.062744 
	C3498.594971,1599.999268 3488.302490,1581.702881 3478.669434,1563.065796 
	C3475.586670,1557.101807 3471.852783,1554.875610 3465.323486,1555.413452 
	C3458.745117,1555.955322 3452.087158,1555.532837 3444.331055,1555.532837 
	C3444.331055,1588.403931 3444.331055,1620.543457 3444.331055,1653.377686 
	C3430.058350,1653.377686 3416.908203,1653.377686 3403.733398,1653.377686 
	C3401.828125,1646.301270 3401.009033,1440.625366 3402.902344,1421.233398 
	C3405.267822,1420.970337 3407.798828,1420.448975 3410.331055,1420.444336 
	C3435.657715,1420.397827 3460.988525,1420.163940 3486.309570,1420.553833 
	C3501.313721,1420.784912 3516.204102,1422.565308 3530.438477,1427.914551 
	C3556.180176,1437.588501 3569.761719,1456.785034 3570.310059,1484.246704 
	C3570.503906,1493.965942 3569.906738,1503.520264 3566.442383,1512.762329 
	C3559.806641,1530.464844 3547.596680,1542.273315 3529.604492,1548.048462 
	C3525.901855,1549.236938 3522.108154,1550.141724 3517.025635,1551.544434 
	C3537.399414,1585.542114 3557.345459,1618.825562 3578.296387,1653.786011 
	C3568.738037,1653.899414 3560.673096,1654.032104 3552.607666,1654.080566 
	C3544.643555,1654.128296 3536.678711,1654.090942 3528.303955,1654.090942 
	C3521.879150,1642.411133 3515.632080,1631.054443 3509.008301,1619.062744 
M3517.345215,1510.448853 
	C3528.422852,1501.075195 3528.402100,1488.700439 3525.089600,1476.473389 
	C3521.806885,1464.355469 3511.312012,1459.158203 3499.938477,1458.253906 
	C3482.066650,1456.833130 3464.062744,1457.062500 3446.113281,1456.662598 
	C3445.610596,1456.651367 3445.090332,1457.428833 3444.583252,1457.844849 
	C3442.877930,1476.139404 3443.587646,1512.410889 3445.891113,1519.492310 
	C3459.415771,1519.492310 3473.081055,1520.026001 3486.681396,1519.317627 
	C3496.906982,1518.784912 3507.400635,1517.931519 3517.345215,1510.448853 
z"/>
<path fill="#2EAFE6" opacity="1.000000" stroke="none" 
	d="
M4011.835205,1500.000000 
	C4011.835205,1473.379150 4011.835205,1447.758301 4011.835205,1421.338989 
	C4014.825684,1420.990723 4017.328369,1420.450928 4019.831787,1420.446289 
	C4045.142334,1420.398926 4070.470703,1419.880859 4095.755859,1420.691284 
	C4108.285645,1421.092896 4121.065430,1422.749146 4133.160156,1425.978394 
	C4169.234863,1435.610107 4184.547852,1463.098633 4178.980957,1500.091309 
	C4175.021484,1526.397949 4159.503418,1543.189453 4133.381836,1549.678833 
	C4131.550293,1550.133911 4129.731934,1550.645386 4126.442871,1551.520020 
	C4146.843262,1585.581299 4166.729004,1618.783569 4187.385254,1653.272583 
	C4183.359863,1653.640015 4180.892090,1654.043335 4178.422363,1654.060059 
	C4167.765625,1654.132202 4157.086914,1653.680664 4146.458984,1654.241577 
	C4139.886719,1654.588623 4136.408691,1652.442871 4133.265137,1646.510742 
	C4118.615234,1618.865723 4103.137695,1591.658936 4088.517578,1563.998535 
	C4085.052734,1557.443237 4081.096924,1554.716919 4073.810059,1555.409302 
	C4067.598389,1555.999390 4061.286377,1555.531250 4053.887695,1555.531250 
	C4053.887695,1588.477417 4053.887695,1620.589844 4053.887695,1653.386230 
	C4039.627686,1653.386230 4026.499023,1653.386230 4013.297852,1653.386230 
	C4013.097656,1653.170532 4012.843750,1652.945679 4012.651855,1652.676514 
	C4012.468750,1652.419922 4012.221680,1652.117798 4012.220703,1651.835083 
	C4012.079346,1601.556641 4011.957764,1551.278320 4011.835205,1500.000000 
M4133.133789,1472.683960 
	C4128.403320,1464.692261 4121.020996,1460.345459 4112.266602,1458.575073 
	C4093.236084,1454.726318 4074.012451,1456.496704 4054.232178,1456.351685 
	C4054.232178,1477.689575 4054.232178,1498.105957 4054.232178,1518.433228 
	C4066.531982,1520.832642 4102.372559,1519.929443 4113.048340,1517.054199 
	C4129.559570,1512.607300 4136.788086,1502.976929 4136.069824,1485.756958 
	C4135.907227,1481.850342 4134.589844,1477.991821 4133.133789,1472.683960 
z"/>
<path fill="#2EAFE6" opacity="1.000000" stroke="none" 
	d="
M3852.001953,1458.208252 
	C3839.738525,1458.208374 3828.474365,1458.208374 3816.549072,1458.208374 
	C3816.549072,1477.537231 3816.549072,1495.987427 3816.549072,1515.666748 
	C3851.872559,1515.666748 3886.986328,1515.666748 3922.473145,1515.666748 
	C3922.473145,1528.711426 3922.473145,1540.526978 3922.473145,1553.317261 
	C3886.985352,1553.317261 3852.142822,1553.317261 3816.591797,1553.317261 
	C3816.591797,1574.426758 3816.591797,1594.571167 3816.591797,1616.139648 
	C3855.336426,1616.456787 3894.156738,1616.102661 3934.379639,1616.344116 
	C3935.412842,1628.776611 3935.031250,1640.821411 3934.595215,1653.488525 
	C3881.033936,1653.488525 3828.234375,1653.488525 3774.760742,1653.488525 
	C3774.760742,1576.079224 3774.760742,1498.954590 3774.760742,1421.116821 
	C3825.725830,1421.116821 3876.546387,1421.116821 3928.624512,1421.116821 
	C3929.497070,1433.176514 3928.963135,1445.279785 3928.884521,1458.208252 
	C3902.900635,1458.208252 3877.950928,1458.208252 3852.001953,1458.208252 
z"/>
<path fill="#2EAFE6" opacity="1.000000" stroke="none" 
	d="
M3030.086914,1646.191650 
	C2996.631592,1664.235840 2963.066162,1665.401978 2929.817871,1648.840454 
	C2900.889893,1634.430908 2885.938477,1609.656494 2883.976074,1577.641968 
	C2882.897461,1560.042847 2883.582275,1542.332642 2883.559570,1524.672363 
	C2883.520264,1494.014771 2883.548340,1463.357300 2883.548340,1432.699707 
	C2883.548340,1429.074951 2883.548340,1425.450195 2883.548340,1421.118408 
	C2897.459717,1421.118408 2910.584473,1421.118408 2924.691162,1421.118408 
	C2924.871094,1424.921631 2925.182861,1428.480347 2925.185791,1432.039185 
	C2925.220215,1475.692871 2925.019287,1519.348145 2925.374268,1562.998901 
	C2925.443848,1571.529663 2926.320312,1580.496460 2929.090820,1588.475220 
	C2935.875488,1608.014282 2950.590088,1618.402588 2971.145264,1619.968384 
	C2977.395996,1620.444458 2983.908203,1620.319214 2990.033203,1619.112305 
	C3014.433350,1614.304077 3029.450928,1594.257812 3029.687256,1566.364258 
	C3029.912842,1539.707397 3029.743652,1513.047119 3029.746094,1486.388428 
	C3029.747803,1468.060547 3029.746338,1449.732666 3029.746338,1431.404785 
	C3029.746338,1428.144043 3029.746338,1424.883179 3029.746338,1421.027832 
	C3043.870361,1421.027832 3057.015625,1421.027832 3070.792969,1421.027832 
	C3071.055420,1423.837891 3071.500732,1426.393188 3071.502930,1428.948730 
	C3071.540039,1475.268311 3071.735352,1521.589111 3071.446777,1567.906860 
	C3071.242188,1600.703003 3058.782959,1627.428223 3030.086914,1646.191650 
z"/>
<path fill="#2EAFE6" opacity="1.000000" stroke="none" 
	d="
M2301.981934,1508.147949 
	C2314.213135,1457.676270 2345.099365,1427.137939 2395.282959,1417.200317 
	C2423.816406,1411.549805 2451.704346,1413.859497 2477.529297,1428.838501 
	C2487.420654,1434.575562 2495.818848,1442.090820 2503.981934,1451.834595 
	C2493.144043,1459.786255 2482.552734,1467.556885 2472.111816,1475.217163 
	C2470.501221,1474.000610 2469.583496,1473.523315 2468.950195,1472.797729 
	C2439.487305,1439.037598 2379.878174,1449.312622 2355.994141,1487.805664 
	C2336.097168,1519.872681 2338.519043,1565.490845 2362.223389,1594.789551 
	C2383.988037,1621.690918 2426.079834,1631.193237 2454.118164,1613.067871 
	C2461.843750,1608.073486 2468.388184,1601.251587 2476.092285,1594.746826 
	C2486.629883,1602.261597 2497.662842,1610.129639 2508.978516,1618.199219 
	C2501.346924,1630.320679 2491.630371,1638.834595 2480.308105,1645.332520 
	C2433.085205,1672.434204 2356.518066,1663.216919 2320.686523,1611.269775 
	C2304.339844,1587.570923 2298.041748,1561.130493 2299.031738,1532.760376 
	C2299.309082,1524.813110 2300.884033,1516.911011 2301.981934,1508.147949 
z"/>
<path fill="#2DAFE6" opacity="1.000000" stroke="none" 
	d="
M3686.616699,1456.001953 
	C3686.616943,1522.234741 3686.616943,1587.468262 3686.616943,1653.389526 
	C3672.947754,1653.389526 3660.116211,1653.389526 3647.248047,1653.389526 
	C3645.137939,1646.511597 3644.657959,1432.090210 3646.866943,1420.976318 
	C3659.573730,1420.976318 3672.393311,1420.976318 3686.616455,1420.976318 
	C3686.616455,1432.594238 3686.616455,1443.798462 3686.616699,1456.001953 
z"/>
<path fill="#FEFEFF" opacity="1.000000" stroke="none" 
	d="
M566.195679,712.000000 
	C566.195801,647.070312 566.195801,583.140625 566.195801,519.421265 
	C574.389954,517.311462 779.364929,516.481873 800.707336,518.389526 
	C827.812134,603.953735 838.928589,692.214294 839.727356,781.905640 
	C831.554382,784.098572 578.382446,784.507324 566.195618,782.343445 
	C566.195618,759.411316 566.195618,736.205688 566.195679,712.000000 
z"/>
<path fill="#FEFFFF" opacity="1.000000" stroke="none" 
	d="
M532.135986,720.000000 
	C532.136047,741.547424 532.136047,762.094849 532.136047,783.160645 
	C440.873962,783.160645 350.782990,783.160645 259.359161,783.160645 
	C258.918976,692.666870 271.072327,604.623901 297.788605,518.230835 
	C375.872711,518.230835 453.330048,518.230835 532.135925,518.230835 
	C532.135925,585.367676 532.135925,652.183838 532.135986,720.000000 
z"/>
<path fill="#FEFFFF" opacity="1.000000" stroke="none" 
	d="
M821.744873,967.504517 
	C815.625671,995.609741 809.264648,1022.772522 800.388245,1049.810059 
	C722.545349,1049.810059 645.091187,1049.810059 566.916687,1049.810059 
	C566.916687,972.923889 566.916687,896.158691 566.916687,819.385071 
	C573.940552,817.407349 821.010803,816.647156 838.454773,818.732727 
	C837.772034,868.520813 831.166870,917.728882 821.744873,967.504517 
z"/>
<path fill="#FFFFFF" opacity="1.000000" stroke="none" 
	d="
M393.999939,1050.460938 
	C361.711792,1050.461182 330.423676,1050.461182 298.340027,1050.461182 
	C274.467438,974.915527 262.699127,897.978210 259.676086,819.648987 
	C267.275360,817.370117 512.091858,816.478577 530.608704,818.474365 
	C532.504883,825.607239 533.253906,1031.815308 531.445435,1048.831543 
	C531.224854,1049.081421 531.031311,1049.364624 530.776001,1049.571655 
	C530.533508,1049.768311 530.226807,1050.017334 529.947571,1050.018433 
	C484.965027,1050.179077 439.982513,1050.319458 393.999939,1050.460938 
z"/>
<path fill="#FEFEFF" opacity="1.000000" stroke="none" 
	d="
M105.999969,783.701721 
	C83.081268,783.701599 61.162571,783.701599 38.332302,783.701599 
	C38.332302,772.106445 37.721226,761.236450 38.441639,750.455444 
	C41.087013,710.867188 47.220810,671.817505 58.075367,633.593872 
	C68.744308,596.023865 83.059258,559.907898 101.376740,525.385559 
	C103.837288,520.748230 106.139000,517.502991 112.492271,517.543945 
	C160.104141,517.851135 207.718887,517.705688 255.332718,517.742126 
	C257.258209,517.743591 259.183380,518.147217 261.966705,518.459900 
	C236.095337,604.886230 225.540558,693.066345 224.553864,783.701843 
	C184.715576,783.701843 145.857773,783.701843 105.999969,783.701721 
z"/>
<path fill="#FEFEFF" opacity="1.000000" stroke="none" 
	d="
M1049.722778,783.701660 
	C990.863403,783.701599 932.976318,783.701599 873.986084,783.701599 
	C873.264954,693.353638 862.301514,605.236023 836.658813,518.347778 
	C889.505188,518.347778 940.976013,518.347778 993.283325,518.347778 
	C1038.042603,600.290039 1060.631958,688.103882 1060.741821,783.044067 
	C1056.980469,783.290222 1053.837769,783.495972 1049.722778,783.701660 
z"/>
<path fill="#FEFFFF" opacity="1.000000" stroke="none" 
	d="
M996.000000,817.783752 
	C1017.572937,817.783630 1038.145874,817.783630 1059.871460,817.783630 
	C1059.109009,827.634521 1058.712158,836.484070 1057.698853,845.262390 
	C1049.637695,915.097839 1029.552979,981.216736 996.429016,1043.326416 
	C993.808716,1048.239502 991.051086,1050.644775 985.036316,1050.610229 
	C937.750427,1050.338623 890.462402,1050.465332 843.174988,1050.433838 
	C841.226562,1050.432617 839.278381,1050.079468 836.395630,1049.799561 
	C858.889648,974.085266 870.200256,897.015320 873.231201,817.783875 
	C914.537476,817.783875 954.768738,817.783875 996.000000,817.783752 
z"/>
<path fill="#FEFFFF" opacity="1.000000" stroke="none" 
	d="
M61.800125,946.135742 
	C48.977257,904.162048 41.376175,862.076904 38.803101,818.401428 
	C101.068916,818.401428 162.854233,818.401428 225.397552,818.401428 
	C228.243057,896.973511 239.752975,973.737671 262.103180,1049.473022 
	C259.245148,1049.866333 257.092377,1050.418823 254.939041,1050.421143 
	C207.941727,1050.471802 160.943878,1050.365479 113.947510,1050.585205 
	C108.160355,1050.612183 104.990326,1048.735840 102.297447,1043.606812 
	C85.994705,1012.555481 72.313965,980.443604 61.800125,946.135742 
z"/>
<path fill="#FDFEFF" opacity="1.000000" stroke="none" 
	d="
M573.594299,251.860291 
	C611.790833,258.105713 643.340759,275.890778 671.525146,300.311035 
	C708.075012,331.979401 735.351074,370.853241 757.458191,413.408722 
	C767.721497,433.165192 776.119080,453.893127 785.270203,474.222198 
	C786.445862,476.833923 787.064880,479.696228 788.172668,483.165833 
	C714.037170,483.165833 640.895447,483.165833 567.822876,483.165833 
	C565.834290,475.917908 565.237976,265.765533 567.184082,252.128036 
	C568.944153,252.015732 570.827576,251.895554 573.594299,251.860291 
z"/>
<path fill="#FDFEFF" opacity="1.000000" stroke="none" 
	d="
M785.832092,1091.729004 
	C770.674255,1130.399414 752.726562,1166.779541 729.669067,1200.479980 
	C707.299683,1233.174561 681.257385,1262.393555 648.265930,1284.861084 
	C626.254700,1299.850830 602.384399,1310.453125 576.028748,1315.055908 
	C573.165039,1315.556152 570.239136,1315.700562 566.783569,1316.069580 
	C566.783569,1238.799316 566.783569,1162.348755 566.783569,1085.226196 
	C640.503357,1085.226196 713.632507,1085.226196 787.484863,1085.226196 
	C786.965637,1087.334229 786.515625,1089.161133 785.832092,1091.729004 
z"/>
<path fill="#FEFEFF" opacity="1.000000" stroke="none" 
	d="
M366.000000,483.648285 
	C347.090088,483.648132 329.180176,483.648132 310.495819,483.648132 
	C311.082611,481.188751 311.276825,479.590790 311.838348,478.134460 
	C332.204926,425.310913 358.115112,375.596283 395.222290,332.411560 
	C422.700073,300.433289 454.499146,274.067139 494.836884,259.543152 
	C506.419281,255.372818 518.192383,252.009308 531.402222,251.450836 
	C531.402222,328.758179 531.402222,405.479248 531.402222,483.648438 
	C476.605621,483.648438 421.802795,483.648438 366.000000,483.648285 
z"/>
<path fill="#FDFEFF" opacity="1.000000" stroke="none" 
	d="
M532.142334,1271.999878 
	C532.142395,1286.939819 532.142395,1300.879883 532.142395,1315.994873 
	C528.116272,1315.583374 524.932190,1315.471802 521.830200,1314.908325 
	C481.064362,1307.503906 447.495392,1286.653198 417.879272,1258.703979 
	C387.274658,1229.821899 363.150269,1195.933716 343.817322,1158.781982 
	C332.616943,1137.258423 323.298462,1114.754517 313.189575,1092.665894 
	C312.259247,1090.633057 311.739502,1088.412354 311.020050,1086.251709 
	C318.639160,1084.195435 517.898499,1083.643921 532.142334,1085.691284 
	C532.142334,1147.321167 532.142334,1209.160522 532.142334,1271.999878 
z"/>
<path fill="#FCFEFF" opacity="1.000000" stroke="none" 
	d="
M969.172668,483.471069 
	C921.181885,483.620697 873.919617,483.620697 825.686707,483.620697 
	C824.341187,480.337585 822.910034,477.087372 821.663452,473.767792 
	C801.907776,421.157562 777.065186,371.283508 742.576599,326.592316 
	C728.511658,308.366638 713.288208,291.214844 695.800415,276.161011 
	C694.821655,275.318420 693.999390,274.294128 691.828003,272.014526 
	C695.463196,272.742188 697.516235,272.953430 699.440857,273.567322 
	C765.359253,294.593231 824.118896,328.325531 876.429932,373.457947 
	C910.651733,402.983521 940.323792,436.586121 965.833801,473.862579 
	C967.735718,476.641785 968.570374,480.151367 969.172668,483.471069 
z"/>
<path fill="#FCFEFF" opacity="1.000000" stroke="none" 
	d="
M351.872070,331.914795 
	C334.458313,355.212402 319.403595,379.206146 307.151764,404.750366 
	C294.939941,430.211060 284.027313,456.294922 272.127594,483.043945 
	C225.165512,483.043945 177.061569,483.043945 128.936981,483.043945 
	C131.560715,471.098236 165.021149,428.264282 196.092621,397.568542 
	C255.362259,339.015564 324.523132,296.840790 405.318146,273.374786 
	C399.102081,279.295197 392.724915,285.057465 386.715088,291.180267 
	C380.654846,297.354462 374.776550,303.730316 369.154449,310.305023 
	C363.316528,317.132172 357.881073,324.303497 351.872070,331.914795 
z"/>
<path fill="#FCFEFF" opacity="1.000000" stroke="none" 
	d="
M827.392334,1231.441650 
	C785.320740,1259.526855 741.025757,1281.235840 691.343018,1296.165039 
	C694.000854,1293.267212 695.209534,1291.709229 696.652161,1290.411255 
	C741.762634,1249.824951 774.173096,1200.142700 799.647888,1145.649902 
	C807.955383,1127.879517 814.954346,1109.489502 822.279724,1091.273560 
	C824.110474,1086.720825 826.360962,1084.431519 831.662231,1084.453125 
	C876.310059,1084.635132 920.958862,1084.554810 965.607422,1084.585693 
	C966.832397,1084.586548 968.057190,1084.950562 969.434998,1085.169556 
	C953.702759,1117.874146 893.044739,1188.049805 827.392334,1231.441650 
z"/>
<path fill="#FCFEFF" opacity="1.000000" stroke="none" 
	d="
M342.132904,1221.855713 
	C360.387177,1248.161011 380.753998,1271.725098 403.480377,1293.647461 
	C359.417084,1281.600342 318.888184,1262.328857 280.830597,1237.760254 
	C219.331680,1198.058594 168.541702,1147.557007 127.277664,1085.268921 
	C176.885513,1085.268921 224.937271,1085.268921 273.788086,1085.268921 
	C291.294434,1132.958740 312.686096,1179.045166 342.132904,1221.855713 
z"/>
<path fill="#FEFFFF" opacity="1.000000" stroke="none" 
	d="
M1457.815552,753.997559 
	C1457.815430,625.442261 1457.815430,497.886658 1457.815430,370.181427 
	C1459.993286,369.468445 1461.495483,368.631836 1463.050659,368.517426 
	C1520.078369,364.321136 1576.881226,365.134796 1632.889893,378.073334 
	C1646.758301,381.277069 1660.376831,386.030975 1673.652588,391.238861 
	C1707.224487,404.408539 1728.611572,430.109436 1743.729126,461.763855 
	C1756.942627,489.431854 1763.552734,518.794861 1766.248291,549.243530 
	C1769.026855,580.631348 1767.756592,611.779236 1761.953125,642.710144 
	C1757.489746,666.500000 1748.892822,688.763855 1735.943970,709.279053 
	C1716.303955,740.395264 1687.505615,759.063110 1653.034912,769.765869 
	C1625.567993,778.294128 1597.343994,782.822937 1568.642944,784.174500 
	C1535.716064,785.724976 1502.776733,787.006287 1469.840942,788.363037 
	C1466.261230,788.510498 1462.670044,788.382996 1457.815674,788.382996 
	C1457.815674,776.769714 1457.815674,765.883484 1457.815552,753.997559 
z"/>
<path fill="#FEFFFF" opacity="1.000000" stroke="none" 
	d="
M2449.407227,841.999878 
	C2449.406738,823.766968 2449.406738,806.534058 2449.406738,788.813904 
	C2453.395508,788.469116 2456.308350,787.998413 2459.220947,787.999634 
	C2487.198730,788.011780 2515.220215,787.138306 2543.143066,788.412537 
	C2579.448486,790.069275 2615.214844,795.659790 2649.963135,807.189758 
	C2707.462402,826.268799 2743.272705,865.581909 2759.526611,923.249329 
	C2770.406006,961.847778 2771.943115,1001.294373 2768.850830,1041.088623 
	C2766.906982,1066.103149 2762.633545,1090.608521 2754.022217,1114.223755 
	C2733.687012,1169.991333 2694.641357,1205.527222 2637.410400,1220.817505 
	C2595.322266,1232.062134 2552.697998,1233.616943 2509.753418,1226.203125 
	C2482.507568,1221.499390 2465.759521,1204.811523 2458.425781,1179.042847 
	C2454.818604,1166.368042 2452.711670,1152.921875 2452.284912,1139.748535 
	C2450.775879,1093.151978 2449.903320,1046.525635 2449.509521,999.904602 
	C2449.067627,947.606506 2449.407471,895.301758 2449.407227,841.999878 
z"/>
<path fill="#FEFFFF" opacity="1.000000" stroke="none" 
	d="
M2452.764648,755.311646 
	C2451.056152,753.807007 2449.799805,752.528870 2449.587402,751.096130 
	C2449.200684,748.484985 2449.411133,745.782166 2449.411133,743.117554 
	C2449.407471,622.847168 2449.407959,502.576782 2449.407959,382.306396 
	C2449.407959,378.670929 2449.407959,375.035461 2449.407959,370.256470 
	C2456.024902,369.590881 2462.174072,368.602325 2468.348145,368.411896 
	C2505.993896,367.250854 2543.637451,367.157196 2581.051025,372.237640 
	C2608.947754,376.025757 2635.907471,382.583252 2659.524170,399.312347 
	C2688.212646,419.633942 2707.411865,446.593872 2715.544678,480.565155 
	C2727.822021,531.847656 2728.391113,583.537537 2715.763916,634.875305 
	C2708.202148,665.618225 2693.472900,692.593567 2668.327148,712.869324 
	C2650.076172,727.585571 2628.705322,735.898315 2606.374268,741.911072 
	C2579.600098,749.120178 2552.247803,752.998596 2524.582764,754.085571 
	C2500.969238,755.013489 2477.320557,755.041992 2452.764648,755.311646 
z"/>
<path fill="#FDFEFF" opacity="1.000000" stroke="none" 
	d="
M4685.941406,1491.981934 
	C4713.628906,1503.541260 4740.601074,1514.834595 4767.888672,1526.260010 
	C4761.680664,1532.215088 4495.158691,1659.751343 4485.221191,1661.825439 
	C4484.862305,1654.887573 4521.853027,1526.181030 4530.007812,1506.390747 
	C4541.039062,1509.135010 4552.229004,1511.910522 4563.413574,1514.705078 
	C4568.576172,1515.994873 4573.709473,1517.404053 4578.890137,1518.614380 
	C4588.067871,1520.758667 4592.502930,1518.861450 4596.590820,1510.291016 
	C4602.894043,1497.074341 4608.830566,1483.683228 4614.948730,1470.377930 
	C4615.775391,1468.580078 4616.751465,1466.851074 4618.272461,1463.899048 
	C4640.668457,1473.203979 4662.947266,1482.459961 4685.941406,1491.981934 
z"/>
<path fill="#FDFEFF" opacity="1.000000" stroke="none" 
	d="
M4634.202148,1368.195801 
	C4615.214355,1409.724731 4596.516602,1450.557739 4577.312500,1492.496948 
	C4512.160645,1475.733887 4447.321777,1459.051392 4382.482422,1442.368774 
	C4382.401855,1441.605225 4382.320801,1440.841675 4382.240234,1440.078003 
	C4474.509766,1396.103638 4566.779297,1352.129272 4659.048828,1308.154907 
	C4659.666504,1308.738770 4660.283691,1309.322510 4660.900879,1309.906250 
	C4652.098145,1329.104126 4643.295410,1348.302002 4634.202148,1368.195801 
z"/>
<path fill="#FCFEFF" opacity="1.000000" stroke="none" 
	d="
M4380.563965,1467.781006 
	C4421.559082,1478.337158 4461.782715,1488.727661 4501.994629,1499.160156 
	C4502.557617,1499.306030 4502.983398,1499.979370 4504.442871,1501.251587 
	C4489.809082,1550.983154 4475.028809,1601.214600 4460.110840,1651.912109 
	C4454.168457,1645.896484 4373.400391,1477.057617 4370.979980,1465.768799 
	C4374.198730,1466.444702 4376.995117,1467.031738 4380.563965,1467.781006 
z"/>
<path fill="#FCFEFF" opacity="1.000000" stroke="none" 
	d="
M4769.823242,1499.822998 
	C4722.816406,1480.204224 4676.490234,1460.842407 4630.313477,1441.542725 
	C4631.272949,1433.752686 4680.673828,1324.791626 4686.892090,1316.322876 
	C4692.365723,1322.233887 4773.383301,1491.802368 4775.212402,1501.634766 
	C4773.412598,1501.040527 4771.958496,1500.560059 4769.823242,1499.822998 
z"/>
<path fill="#FEFEFF" opacity="1.000000" stroke="none" 
	d="
M2746.911865,1592.808105 
	C2726.093262,1619.304810 2692.176758,1628.447754 2660.931641,1618.919678 
	C2628.300293,1608.969238 2611.202148,1584.895508 2605.909912,1551.948730 
	C2601.762939,1526.132202 2606.490723,1502.130737 2622.884766,1481.337891 
	C2640.653564,1458.801270 2664.891602,1449.847778 2692.710205,1452.888062 
	C2735.980225,1457.616821 2763.223145,1488.475220 2764.655762,1532.086792 
	C2765.376465,1554.029419 2760.687500,1574.364624 2746.911865,1592.808105 
z"/>
<path fill="#FCFEFF" opacity="1.000000" stroke="none" 
	d="
M3206.568848,1456.230225 
	C3223.131348,1456.752075 3238.752197,1457.210205 3254.364014,1457.873047 
	C3256.971680,1457.983643 3259.596191,1458.809814 3262.119873,1459.602539 
	C3276.367432,1464.078003 3283.343262,1473.346191 3283.218994,1487.462158 
	C3283.085205,1502.647705 3276.402832,1511.860962 3261.856689,1516.246948 
	C3257.435791,1517.579712 3252.756348,1518.652466 3248.173828,1518.742065 
	C3232.611816,1519.046753 3217.040527,1518.858521 3200.996094,1518.858521 
	C3200.719971,1517.708496 3200.173828,1516.482788 3200.168701,1515.254883 
	C3200.094971,1497.935547 3200.129395,1480.615845 3200.051025,1463.296509 
	C3200.033203,1459.336792 3200.129883,1455.725342 3206.568848,1456.230225 
z"/>
<path fill="#FCFEFF" opacity="1.000000" stroke="none" 
	d="
M3516.755859,1510.913574 
	C3507.400635,1517.931519 3496.906982,1518.784912 3486.681396,1519.317627 
	C3473.081055,1520.026001 3459.415771,1519.492310 3445.891113,1519.492310 
	C3443.587646,1512.410889 3442.877930,1476.139404 3444.580811,1457.841797 
	C3445.090332,1457.428833 3445.610596,1456.651367 3446.113281,1456.662598 
	C3464.062744,1457.062500 3482.066650,1456.833130 3499.938477,1458.253906 
	C3511.312012,1459.158203 3521.806885,1464.355469 3525.089600,1476.473389 
	C3528.402100,1488.700439 3528.422852,1501.075195 3516.755859,1510.913574 
z"/>
<path fill="#FCFEFF" opacity="1.000000" stroke="none" 
	d="
M4133.468750,1473.397583 
	C4134.589844,1477.991821 4135.907227,1481.850342 4136.069824,1485.756958 
	C4136.788086,1502.976929 4129.559570,1512.607300 4113.048340,1517.054199 
	C4102.372559,1519.929443 4066.531982,1520.832642 4054.232178,1518.433228 
	C4054.232178,1498.105957 4054.232178,1477.689575 4054.232178,1456.351685 
	C4074.012451,1456.496704 4093.236084,1454.726318 4112.266602,1458.575073 
	C4121.020996,1460.345459 4128.403320,1464.692261 4133.468750,1473.397583 
z"/>
</svg>