<svg version="1.1" id="Layer_1" xmlns="http://www.w3.org/2000/svg" xmlns:xlink="http://www.w3.org/1999/xlink" x="0px" y="0px"
	 width="100%" viewBox="0 0 5065 1693" enable-background="new 0 0 5065 1693" xml:space="preserve">
<path fill="#FFFFFF" opacity="1.000000" stroke="none" 
	d="
M2.000001,750.000000 
	C2.000000,500.681488 2.000000,251.362961 2.000000,2.022225 
	C1690.551392,2.022225 3379.102783,2.022225 5067.827148,2.022225 
	C5067.827148,566.517883 5067.827148,1131.035889 5067.827148,1695.776855 
	C3379.582520,1695.776855 1691.164795,1695.776855 2.000000,1695.776855 
	C2.000000,1403.268311 2.000000,1110.535889 2.637994,817.390015 
	C3.561144,818.269897 3.932420,819.551086 4.118748,820.858704 
	C8.013888,848.192810 10.410622,875.836975 16.017778,902.814209 
	C42.756104,1031.457520 105.464287,1139.433716 205.789658,1224.578979 
	C300.581085,1305.027588 410.807526,1346.962769 535.004395,1351.456787 
	C581.825745,1353.150879 628.146912,1347.894409 673.655518,1336.590820 
	C792.258118,1307.131958 889.781372,1244.115112 966.391663,1149.416016 
	C1050.446167,1045.515137 1092.045532,925.669800 1095.147949,792.408447 
	C1096.173950,748.334778 1091.692871,704.604309 1082.218994,661.465942 
	C1052.127441,524.448181 983.390869,411.097382 871.676392,325.875305 
	C750.931335,233.764328 614.119873,199.321777 464.042389,222.825714 
	C354.937256,239.912903 260.725494,288.856934 180.816818,364.877838 
	C112.649864,429.728271 64.174362,507.343903 34.029140,596.395874 
	C18.910896,641.056702 9.366503,686.904419 5.640440,733.956909 
	C5.212038,739.366760 3.250628,744.655273 2.000001,750.000000 
M1375.000000,1263.517944 
	C1454.539917,1263.517944 1534.079712,1263.517944 1614.392700,1263.517944 
	C1614.046265,1252.301636 1615.264648,1242.473633 1613.394775,1232.008179 
	C1598.870239,1232.008179 1584.896362,1232.531616 1570.978271,1231.874023 
	C1554.045654,1231.074097 1537.041870,1230.106323 1520.283203,1227.711914 
	C1497.935425,1224.519165 1479.710571,1213.853394 1470.584961,1192.229736 
	C1466.374146,1182.251831 1463.150513,1171.299927 1462.305420,1160.566895 
	C1460.058350,1132.028320 1458.406128,1103.375366 1458.203735,1074.756104 
	C1457.626343,993.099060 1457.881470,911.436157 1457.843018,829.775574 
	C1457.841675,826.879089 1458.200317,823.982483 1458.439575,820.351868 
	C1480.928101,820.461914 1502.813110,818.594849 1524.528687,823.376282 
	C1536.958374,826.113098 1547.634399,831.718872 1556.380005,840.959167 
	C1563.021606,847.976685 1569.886353,854.803711 1576.205933,862.101746 
	C1621.645264,914.575989 1662.696533,970.387024 1701.815430,1027.664917 
	C1742.234375,1086.846313 1783.588135,1145.342163 1830.146729,1199.944824 
	C1847.458862,1220.247925 1865.501709,1239.872803 1886.227051,1256.833252 
	C1890.890381,1260.649414 1895.439819,1263.691772 1902.183594,1263.670288 
	C1977.510742,1263.429688 2052.838867,1263.525757 2128.166748,1263.483154 
	C2130.688721,1263.481689 2133.210205,1262.972290 2136.260254,1262.642700 
	C2136.039795,1252.056885 2136.882080,1242.208984 2135.749756,1232.292236 
	C2112.112305,1230.669189 2089.747559,1227.590454 2067.967773,1220.935425 
	C2030.507812,1209.489380 1998.619507,1188.985718 1970.677124,1161.859131 
	C1935.177368,1127.396118 1904.050171,1089.151245 1874.092407,1049.939575 
	C1839.098389,1004.135498 1804.957886,957.675354 1769.683105,912.090942 
	C1747.041260,882.832031 1722.779053,854.826355 1695.152588,830.047546 
	C1684.324829,820.335815 1672.583374,811.642700 1660.568848,801.928406 
	C1668.344482,800.592651 1675.760742,799.321594 1683.175781,798.044312 
	C1721.800171,791.391113 1759.063843,780.536316 1793.784790,761.952881 
	C1831.651245,741.685913 1862.218018,713.597656 1884.228882,676.565125 
	C1905.817749,640.242310 1913.989014,600.711731 1912.342773,558.738464 
	C1910.938110,522.927429 1901.270630,489.772034 1881.315918,459.964264 
	C1853.615234,418.585938 1815.520874,389.753967 1770.292480,369.904816 
	C1724.298218,349.719574 1675.501465,341.281342 1625.983643,336.225555 
	C1586.823853,332.227386 1547.504517,330.969177 1508.176880,331.975555 
	C1448.561523,333.501160 1388.956909,335.521271 1329.359985,337.672394 
	C1296.069092,338.874023 1262.800293,340.710785 1229.527100,342.372528 
	C1217.286499,342.983856 1205.061890,343.914764 1191.667603,344.774506 
	C1191.837891,355.307739 1191.031250,365.333832 1192.190674,375.941040 
	C1200.335205,375.941040 1207.325439,375.578827 1214.265991,376.010986 
	C1232.859741,377.168701 1251.547974,377.792084 1269.986694,380.230408 
	C1299.085938,384.078461 1313.501709,397.852661 1320.473511,426.500580 
	C1322.041870,432.945679 1323.421753,439.561279 1323.769531,446.157349 
	C1325.312988,475.427216 1327.479614,504.715729 1327.559937,534.002625 
	C1327.980713,687.657043 1327.984253,841.313171 1327.795044,994.968323 
	C1327.740479,1039.284424 1326.786255,1083.604248 1325.768433,1127.911377 
	C1325.471069,1140.855347 1324.073853,1153.838867 1322.240479,1166.670044 
	C1317.086304,1202.745361 1298.412842,1221.617188 1262.732178,1228.214844 
	C1240.950928,1232.242432 1218.986206,1232.094604 1196.997803,1232.015137 
	C1193.118530,1232.001099 1189.239380,1232.013184 1185.005127,1232.013184 
	C1184.289551,1243.171753 1184.195068,1252.932251 1184.949707,1263.517456 
	C1248.455322,1263.517456 1310.727661,1263.517456 1375.000000,1263.517944 
M2170.589844,1241.387329 
	C2171.208008,1248.533813 2169.167480,1255.912842 2172.303955,1263.519897 
	C2176.431885,1263.519897 2180.401123,1263.519897 2184.370361,1263.519897 
	C2278.028564,1263.519897 2371.686768,1263.510376 2465.344971,1263.523682 
	C2516.660156,1263.530884 2567.970459,1263.825684 2619.219482,1260.210205 
	C2657.809082,1257.487671 2696.169922,1253.260254 2733.753906,1243.869141 
	C2801.089600,1227.044067 2851.599121,1187.899658 2885.184326,1127.325195 
	C2906.765137,1088.402100 2913.896240,1046.116943 2912.373291,1001.961426 
	C2910.462158,946.553040 2890.298340,899.060425 2852.078857,859.013916 
	C2822.871338,828.410278 2787.280762,808.170898 2747.765625,794.297302 
	C2710.180176,781.101257 2671.348389,773.672729 2631.769287,769.826294 
	C2628.256104,769.484863 2624.797363,768.579163 2619.745117,767.645813 
	C2641.245117,762.804749 2660.850830,758.979553 2680.133545,753.923950 
	C2718.383545,743.895569 2754.843506,729.558228 2787.273682,706.316772 
	C2821.114746,682.063782 2845.508301,650.827209 2857.132080,610.456970 
	C2864.295654,585.578247 2866.148682,560.169373 2864.348877,534.300964 
	C2860.646729,481.091248 2838.582275,437.746185 2796.291992,405.021240 
	C2764.633789,380.523499 2728.223633,366.156219 2689.928711,356.036713 
	C2658.641357,347.769073 2626.853760,342.023071 2594.572510,339.848389 
	C2562.352295,337.677734 2530.036377,334.802155 2497.809814,335.301514 
	C2430.523926,336.344025 2363.272705,339.515564 2296.000488,341.594849 
	C2260.362061,342.696411 2224.709229,343.328705 2189.063965,344.218048 
	C2186.217773,344.289062 2183.380371,344.713135 2180.149658,345.008728 
	C2180.262207,355.829346 2179.617188,365.662964 2180.581299,375.934967 
	C2189.154297,375.934967 2196.491211,375.564087 2203.778564,376.006805 
	C2223.037598,377.176758 2242.338867,378.121033 2261.506104,380.221405 
	C2288.086426,383.134064 2304.235352,398.531586 2310.779053,424.267914 
	C2311.270996,426.201904 2311.979980,428.117859 2312.178223,430.083527 
	C2314.115479,449.279022 2317.115479,468.453522 2317.614014,487.690948 
	C2318.856689,535.659851 2319.125732,583.657349 2319.452148,631.645569 
	C2319.719482,670.973511 2319.625732,710.305176 2319.484131,749.634460 
	C2319.053711,869.282532 2318.683838,988.931458 2317.864014,1108.577148 
	C2317.734131,1127.514282 2315.978027,1146.498901 2313.955566,1165.352173 
	C2310.157227,1200.759399 2289.521973,1222.721436 2254.436279,1227.897461 
	C2237.046143,1230.462769 2219.328369,1230.964355 2201.732666,1231.918945 
	C2191.823975,1232.456421 2181.861816,1232.015869 2171.510254,1232.015869 
	C2171.138184,1235.064209 2170.864990,1237.302124 2170.589844,1241.387329 
M3103.609375,885.000000 
	C3103.643066,912.328430 3103.660645,939.656921 3103.714600,966.985291 
	C3103.778076,999.065491 3107.062988,1030.812500 3114.078857,1062.122314 
	C3121.801758,1096.586914 3134.342285,1128.968994 3155.767578,1157.496582 
	C3180.484863,1190.407227 3212.378906,1214.553589 3248.280762,1233.884644 
	C3296.897705,1260.061523 3349.362549,1272.807373 3403.904053,1277.718018 
	C3450.163086,1281.883301 3496.364258,1281.213379 3542.418701,1274.239014 
	C3589.289795,1267.140991 3633.716064,1252.969849 3675.407959,1230.259888 
	C3719.440430,1206.274902 3754.665527,1173.177002 3780.381104,1130.034058 
	C3796.240479,1103.426514 3807.498779,1075.140869 3811.794434,1044.332642 
	C3817.324219,1004.674438 3819.429688,964.728271 3819.595703,924.765442 
	C3820.109131,801.122498 3819.742920,677.475891 3820.258545,553.832947 
	C3820.372314,526.555908 3822.345459,499.264160 3824.136475,472.023529 
	C3825.660400,448.850922 3835.227539,429.237549 3851.882080,412.794861 
	C3870.687012,394.229065 3893.712402,384.795074 3919.067627,380.063080 
	C3929.743408,378.070770 3940.551514,376.788910 3951.898438,375.094635 
	C3951.898438,369.508667 3951.951904,364.551758 3951.883301,359.596497 
	C3951.815918,354.742126 3951.624268,349.889465 3951.485352,344.973175 
	C3851.169189,344.973175 3752.013672,344.973175 3652.426758,344.973175 
	C3652.426758,355.399017 3652.426758,365.211029 3652.426758,375.426971 
	C3654.860596,375.732544 3656.785889,375.997467 3658.716797,376.213165 
	C3680.901123,378.691071 3703.082764,381.232391 3724.071045,389.523956 
	C3754.456055,401.527649 3773.953369,422.772552 3780.633057,455.347107 
	C3786.224609,482.615448 3787.387207,510.305695 3787.379883,537.869507 
	C3787.342773,677.166504 3786.757080,816.465149 3785.725342,955.758484 
	C3785.555908,978.658997 3783.168701,1001.663513 3780.138916,1024.397705 
	C3773.626709,1073.262085 3752.067627,1115.277344 3717.271729,1149.839966 
	C3680.184082,1186.678833 3634.378906,1208.654663 3584.323975,1221.791992 
	C3537.414551,1234.103760 3489.709229,1236.043579 3441.584717,1230.313232 
	C3390.687012,1224.252930 3344.755371,1206.975220 3306.108643,1172.296021 
	C3274.676025,1144.089966 3252.797607,1110.600586 3245.320312,1068.294556 
	C3237.932129,1026.492920 3234.888916,984.262939 3234.538086,942.023071 
	C3233.512207,818.386047 3233.593262,694.738220 3233.669434,571.094849 
	C3233.691650,535.455811 3234.898682,499.808502 3236.123779,464.184296 
	C3236.522705,452.587280 3237.751221,440.841675 3240.246826,429.527161 
	C3247.593994,396.217163 3263.915527,383.990631 3292.215088,379.760590 
	C3315.048828,376.347595 3337.978516,375.824677 3360.975586,375.886688 
	C3364.508789,375.896210 3368.042480,375.636444 3372.191895,375.477661 
	C3372.191895,369.432465 3372.252930,364.468842 3372.174561,359.507446 
	C3372.097900,354.664795 3371.878662,349.824463 3371.718506,344.880615 
	C3234.709717,344.880615 3098.868896,344.880615 2962.418213,344.880615 
	C2962.418213,355.178101 2962.418213,364.960541 2962.418213,375.949860 
	C2972.081543,375.949860 2981.319824,375.919678 2990.558105,375.955933 
	C3011.908203,376.039703 3033.140381,377.283966 3054.089355,381.855621 
	C3072.968750,385.975616 3086.005127,397.156891 3091.891357,415.252167 
	C3095.767334,427.166504 3098.802002,439.759460 3099.550537,452.208740 
	C3101.630127,486.780151 3103.232910,521.431274 3103.385010,556.058105 
	C3103.863770,665.036987 3103.590820,774.019104 3103.609375,885.000000 
M4235.666504,1251.385010 
	C4268.054688,1266.185913 4301.894043,1275.333984 4337.436523,1278.510864 
	C4384.405762,1282.709351 4430.838379,1279.926880 4475.730469,1265.273926 
	C4558.174805,1238.363770 4614.655762,1184.232422 4641.047852,1100.922485 
	C4654.309082,1059.060669 4656.444824,1015.897217 4650.268066,972.431396 
	C4638.928711,892.621887 4599.457031,831.225891 4529.848633,789.868530 
	C4489.701172,766.015503 4447.450684,746.231995 4405.317383,726.232666 
	C4370.419922,709.667786 4335.296387,693.535767 4300.846680,676.080811 
	C4266.922363,658.892334 4234.613281,638.987488 4205.642090,613.978149 
	C4152.097656,567.755920 4141.874512,498.731323 4166.171387,444.322723 
	C4182.507324,407.741394 4207.940430,380.239105 4247.548828,368.522797 
	C4278.366699,359.406616 4309.841309,357.835022 4341.532227,362.666260 
	C4393.849121,370.641846 4436.204102,396.659454 4471.365723,435.390320 
	C4505.000488,472.438873 4526.113770,516.191956 4540.072754,563.769348 
	C4542.119629,570.747009 4544.082520,577.748962 4546.059082,584.651978 
	C4555.903809,584.651978 4565.033203,584.651978 4574.589844,584.651978 
	C4574.589844,504.446747 4574.589844,424.986969 4574.589844,344.365173 
	C4569.370117,344.365173 4564.801270,344.365173 4560.232422,344.365173 
	C4555.671387,344.365173 4551.109863,344.365173 4547.966797,344.365173 
	C4543.175781,359.810089 4539.442383,373.955353 4534.370117,387.602997 
	C4529.300781,401.242889 4521.182617,413.242889 4511.792969,424.203064 
	C4500.576660,413.247955 4490.559082,403.006775 4480.048828,393.299103 
	C4462.102051,376.723267 4442.802246,361.823639 4420.318848,351.925262 
	C4366.365234,328.172028 4310.008789,322.135071 4252.152344,331.931152 
	C4186.434570,343.058258 4135.435547,377.559235 4099.642090,433.455933 
	C4065.104004,487.391022 4058.437744,546.968567 4071.136230,608.440552 
	C4085.885742,679.838989 4125.391602,735.005005 4187.371094,773.672913 
	C4235.260254,803.550354 4286.284668,827.340515 4337.785645,850.139099 
	C4381.371582,869.433899 4424.615234,889.379211 4464.750000,915.366455 
	C4485.513672,928.810974 4505.453125,943.366638 4521.223145,962.699463 
	C4551.083008,999.305725 4560.865234,1041.447754 4556.570312,1088.016724 
	C4551.297363,1145.187500 4503.919434,1217.829102 4429.829102,1238.166138 
	C4398.314453,1246.816528 4366.395996,1249.365601 4333.848145,1246.386719 
	C4298.447266,1243.146729 4265.280273,1233.410400 4234.884277,1214.745239 
	C4198.175293,1192.203979 4171.056152,1160.670532 4149.698730,1123.775269 
	C4124.590332,1080.398560 4109.157715,1033.396118 4097.914551,984.843079 
	C4095.899902,976.144043 4093.955566,967.428833 4092.033203,958.960327 
	C4080.753906,958.960327 4070.293213,958.960327 4059.976807,958.960327 
	C4057.965820,971.017761 4058.436523,1245.907227 4060.458252,1253.511963 
	C4070.608887,1253.511963 4080.865723,1253.511963 4091.826172,1253.511963 
	C4092.621338,1250.220337 4093.444580,1247.067993 4094.141113,1243.888062 
	C4099.359863,1220.061646 4106.104004,1196.764038 4118.059570,1175.296265 
	C4119.919922,1171.954834 4122.160156,1168.824951 4124.794434,1164.707397 
	C4156.440918,1201.046265 4191.817871,1230.477417 4235.666504,1251.385010 
M4762.066406,1410.802856 
	C4761.487305,1409.603516 4760.903320,1408.406616 4760.330078,1407.204224 
	C4744.852539,1374.747925 4729.534180,1342.214111 4713.838867,1309.863037 
	C4704.464844,1290.542114 4688.519043,1281.571045 4667.139648,1281.667603 
	C4657.816895,1281.709717 4649.585449,1285.094971 4641.442871,1288.971313 
	C4614.087402,1301.994263 4586.756836,1315.070190 4559.406738,1328.104248 
	C4497.792480,1357.467407 4436.111328,1386.690918 4374.642090,1416.354736 
	C4367.930176,1419.593872 4361.331543,1424.420410 4356.572266,1430.096680 
	C4342.951172,1446.341919 4340.442871,1464.699585 4349.639648,1484.156738 
	C4361.163574,1508.538452 4372.788574,1532.872070 4384.389648,1557.217285 
	C4400.574707,1591.181274 4416.810547,1625.120850 4432.955078,1659.103760 
	C4439.630859,1673.154541 4450.157715,1682.786255 4465.254395,1686.715942 
	C4478.278320,1690.105957 4490.799805,1688.317505 4503.078125,1682.437622 
	C4566.737793,1651.951172 4630.521973,1621.724243 4694.254395,1591.389526 
	C4720.107910,1579.084106 4745.799805,1566.429810 4771.819336,1554.488281 
	C4798.679688,1542.160645 4811.041504,1511.380981 4797.183105,1484.233276 
	C4785.077148,1460.519409 4774.142090,1436.207642 4762.066406,1410.802856 
M2622.192627,1429.130249 
	C2595.481934,1443.124634 2577.904541,1464.913818 2568.120605,1493.131714 
	C2560.904297,1513.944702 2559.078369,1535.474365 2562.198486,1557.181274 
	C2568.449707,1600.668701 2590.734131,1632.568848 2631.749023,1650.073730 
	C2656.671387,1660.710693 2682.764404,1662.713867 2709.162109,1657.737427 
	C2750.075195,1650.024536 2781.061768,1628.481689 2798.025879,1589.615967 
	C2812.098633,1557.374634 2812.270508,1524.061157 2801.042480,1491.106567 
	C2789.106445,1456.074219 2764.932373,1432.272583 2729.497559,1421.287354 
	C2693.482910,1410.122559 2657.891113,1412.025513 2622.192627,1429.130249 
M3318.660889,1521.433716 
	C3327.484375,1505.809570 3328.112305,1488.832764 3325.239258,1471.902954 
	C3321.512939,1449.945557 3307.478271,1436.012939 3287.105225,1428.135010 
	C3272.301270,1422.410645 3256.735596,1420.711426 3241.052246,1420.518433 
	C3216.412842,1420.215210 3191.766846,1420.401978 3167.123779,1420.428955 
	C3164.543701,1420.431763 3161.964111,1420.755493 3159.545166,1420.919312 
	C3157.449951,1432.099487 3157.853271,1646.426514 3159.825684,1653.361084 
	C3173.031250,1653.361084 3186.184082,1653.361084 3200.425293,1653.361084 
	C3200.425293,1620.522705 3200.425293,1588.397095 3200.425293,1555.531860 
	C3208.484131,1555.531860 3215.467529,1555.941284 3222.378906,1555.411499 
	C3228.700684,1554.926758 3231.903320,1557.673218 3234.710205,1563.024902 
	C3243.984375,1580.708740 3253.726318,1598.147583 3263.319092,1615.663818 
	C3270.327637,1628.461426 3277.384766,1641.232666 3284.206543,1653.627686 
	C3301.008057,1653.627686 3316.864014,1653.627686 3334.314453,1653.627686 
	C3313.659912,1619.114380 3293.621826,1585.631592 3273.460938,1551.943115 
	C3301.570068,1542.655640 3307.013916,1539.031860 3318.660889,1521.433716 
M3509.385010,1619.697876 
	C3515.632080,1631.054443 3521.879150,1642.411133 3528.303955,1654.090942 
	C3536.678711,1654.090942 3544.643555,1654.128296 3552.607666,1654.080566 
	C3560.673096,1654.032104 3568.738037,1653.899414 3578.296387,1653.786011 
	C3557.345459,1618.825562 3537.399414,1585.542114 3517.025635,1551.544434 
	C3522.108154,1550.141724 3525.901855,1549.236938 3529.604492,1548.048462 
	C3547.596680,1542.273315 3559.806641,1530.464844 3566.442383,1512.762329 
	C3569.906738,1503.520264 3570.503906,1493.965942 3570.310059,1484.246704 
	C3569.761719,1456.785034 3556.180176,1437.588501 3530.438477,1427.914551 
	C3516.204102,1422.565308 3501.313721,1420.784912 3486.309570,1420.553833 
	C3460.988525,1420.163940 3435.657715,1420.397827 3410.331055,1420.444336 
	C3407.798828,1420.448975 3405.267822,1420.970337 3402.902344,1421.233398 
	C3401.009033,1440.625366 3401.828125,1646.301270 3403.733398,1653.377686 
	C3416.908203,1653.377686 3430.058350,1653.377686 3444.331055,1653.377686 
	C3444.331055,1620.543457 3444.331055,1588.403931 3444.331055,1555.532837 
	C3452.087158,1555.532837 3458.745117,1555.955322 3465.323486,1555.413452 
	C3471.852783,1554.875610 3475.586670,1557.101807 3478.669434,1563.065796 
	C3488.302490,1581.702881 3498.594971,1599.999268 3509.385010,1619.697876 
M4011.835205,1501.000000 
	C4011.957764,1551.278320 4012.079590,1601.556519 4012.221191,1651.834839 
	C4012.222168,1652.117554 4012.468750,1652.419922 4012.651855,1652.676636 
	C4012.843750,1652.945557 4013.097900,1653.170288 4013.298584,1653.386230 
	C4026.499023,1653.386230 4039.627686,1653.386230 4053.887695,1653.386230 
	C4053.887695,1620.589844 4053.887695,1588.477417 4053.887695,1555.531250 
	C4061.283936,1555.531250 4067.597168,1555.999634 4073.809814,1555.409302 
	C4081.096680,1554.716919 4085.052490,1557.443115 4088.517578,1563.998413 
	C4103.137695,1591.658813 4118.615234,1618.865601 4133.265625,1646.510620 
	C4136.409180,1652.442627 4139.886719,1654.588623 4146.458984,1654.241699 
	C4157.086914,1653.680786 4167.765625,1654.132202 4178.422363,1654.060181 
	C4180.892090,1654.043457 4183.359863,1653.640259 4187.365234,1653.274658 
	C4166.723145,1618.786987 4146.847168,1585.578979 4126.459473,1551.515991 
	C4129.731934,1550.645508 4131.550293,1550.134155 4133.381836,1549.679077 
	C4159.502441,1543.188843 4175.021973,1526.398315 4178.980957,1500.091309 
	C4184.547363,1463.099731 4169.236328,1435.611206 4133.160156,1425.978394 
	C4121.065430,1422.748901 4108.285645,1421.092773 4095.755859,1420.691284 
	C4070.470703,1419.880981 4045.142334,1420.398926 4019.831787,1420.446289 
	C4017.328369,1420.450928 4014.825684,1420.990723 4011.835205,1421.338989 
	C4011.835205,1447.758301 4011.835205,1473.379150 4011.835205,1501.000000 
M3853.001221,1458.208252 
	C3877.950928,1458.208252 3902.900635,1458.208252 3928.884521,1458.208252 
	C3928.963135,1445.279785 3929.496826,1433.176514 3928.624512,1421.116821 
	C3876.546387,1421.116821 3825.725830,1421.116821 3774.760742,1421.116821 
	C3774.760742,1498.954468 3774.760742,1576.079224 3774.760742,1653.488525 
	C3828.234375,1653.488525 3881.033936,1653.488525 3933.720215,1653.488525 
	C3935.861816,1641.860474 3935.418457,1623.534912 3932.788086,1616.335205 
	C3894.156738,1616.101318 3855.336426,1616.458252 3816.591797,1616.138794 
	C3816.591797,1594.571167 3816.591797,1574.426758 3816.591797,1553.317261 
	C3852.142822,1553.317261 3886.985352,1553.317261 3922.473145,1553.317261 
	C3922.473145,1540.526978 3922.473145,1528.711426 3922.473145,1515.666748 
	C3886.986328,1515.666748 3851.872559,1515.666748 3816.549072,1515.666748 
	C3816.549072,1495.987427 3816.549072,1477.537231 3816.549072,1458.208374 
	C3828.474365,1458.208374 3839.738525,1458.208374 3853.001221,1458.208252 
M3030.714111,1645.824097 
	C3058.782959,1627.428223 3071.242188,1600.703003 3071.446777,1567.906860 
	C3071.735352,1521.589111 3071.540039,1475.268311 3071.502930,1428.948730 
	C3071.500732,1426.393188 3071.055420,1423.837891 3070.792969,1421.027832 
	C3057.015625,1421.027832 3043.870361,1421.027832 3029.746338,1421.027832 
	C3029.746338,1424.883179 3029.746338,1428.144043 3029.746338,1431.404785 
	C3029.746338,1449.732666 3029.747803,1468.060547 3029.746094,1486.388428 
	C3029.743652,1513.047119 3029.912842,1539.707397 3029.687256,1566.364258 
	C3029.450928,1594.257812 3014.433350,1614.304077 2990.033203,1619.112305 
	C2983.908203,1620.319214 2977.395996,1620.444458 2971.145264,1619.968384 
	C2950.590088,1618.402588 2935.875488,1608.014282 2929.090820,1588.475220 
	C2926.320312,1580.496460 2925.443848,1571.529663 2925.374268,1562.998901 
	C2925.019287,1519.348145 2925.220215,1475.692871 2925.185791,1432.039185 
	C2925.182861,1428.480347 2924.871094,1424.921631 2924.691162,1421.118408 
	C2910.584473,1421.118408 2897.459717,1421.118408 2883.548340,1421.118408 
	C2883.548340,1425.450195 2883.548340,1429.074951 2883.548340,1432.699707 
	C2883.548340,1463.357300 2883.520264,1494.014771 2883.559570,1524.672363 
	C2883.582275,1542.332642 2882.897461,1560.042847 2883.976074,1577.641968 
	C2885.938477,1609.656494 2900.889893,1634.430908 2929.817871,1648.840454 
	C2963.066162,1665.401978 2996.631592,1664.235840 3030.714111,1645.824097 
M2301.863770,1508.988281 
	C2300.884033,1516.911011 2299.308838,1524.813110 2299.031738,1532.760376 
	C2298.041748,1561.130615 2304.339844,1587.570801 2320.686768,1611.270020 
	C2356.516602,1663.215210 2433.083496,1672.435425 2480.308350,1645.332764 
	C2491.630615,1638.834717 2501.346680,1630.320435 2508.978271,1618.199463 
	C2497.662598,1610.130005 2486.629639,1602.262207 2476.091309,1594.747314 
	C2468.388184,1601.251587 2461.843994,1608.073486 2454.118164,1613.067871 
	C2426.079346,1631.193604 2383.987549,1621.690308 2362.223389,1594.789429 
	C2338.519287,1565.490601 2336.096924,1519.872192 2355.993896,1487.805542 
	C2379.883789,1449.303955 2439.498047,1439.043945 2468.949951,1472.797729 
	C2469.583252,1473.523438 2470.501465,1474.000244 2472.112549,1475.216797 
	C2482.552734,1467.556763 2493.144043,1459.786011 2503.981689,1451.834351 
	C2495.818848,1442.090820 2487.420654,1434.575562 2477.529297,1428.838501 
	C2451.704346,1413.859497 2423.816406,1411.549805 2395.282959,1417.200317 
	C2345.099365,1427.137939 2314.213135,1457.676270 2301.863770,1508.988281 
M3686.616455,1455.002686 
	C3686.616455,1443.798462 3686.616455,1432.594238 3686.616455,1420.976318 
	C3672.393311,1420.976318 3659.573730,1420.976318 3646.866943,1420.976318 
	C3644.657959,1432.090210 3645.137939,1646.511597 3647.248047,1653.389526 
	C3660.116211,1653.389526 3672.947754,1653.389526 3686.616943,1653.389526 
	C3686.616943,1587.468262 3686.616943,1522.234741 3686.616455,1455.002686 
z"/>
<path fill="#2EAFE6" opacity="1.000000" stroke="none" 
	d="
M2.000001,750.937317 
	C3.250628,744.655273 5.212038,739.366760 5.640440,733.956909 
	C9.366503,686.904419 18.910896,641.056702 34.029140,596.395874 
	C64.174362,507.343903 112.649864,429.728271 180.816818,364.877838 
	C260.725494,288.856934 354.937256,239.912903 464.042389,222.825714 
	C614.119873,199.321777 750.931335,233.764328 871.676392,325.875305 
	C983.390869,411.097382 1052.127441,524.448181 1082.218994,661.465942 
	C1091.692871,704.604309 1096.173950,748.334778 1095.147949,792.408447 
	C1092.045532,925.669800 1050.446167,1045.515137 966.391663,1149.416016 
	C889.781372,1244.115112 792.258118,1307.131958 673.655518,1336.590820 
	C628.146912,1347.894409 581.825745,1353.150879 535.004395,1351.456787 
	C410.807526,1346.962769 300.581085,1305.027588 205.789658,1224.578979 
	C105.464287,1139.433716 42.756104,1031.457520 16.017778,902.814209 
	C10.410622,875.836975 8.013888,848.192810 4.118748,820.858704 
	C3.932420,819.551086 3.561144,818.269897 2.637994,816.488159 
	C2.000000,794.624878 2.000000,773.249756 2.000001,750.937317 
M566.195618,713.000000 
	C566.195618,736.205627 566.195618,759.411255 566.195618,782.343384 
	C578.382202,784.507324 831.554138,784.098633 839.727356,781.905640 
	C838.928589,692.214294 827.812134,603.953735 800.707397,518.389526 
	C779.365723,516.481995 574.389893,517.311462 566.195801,519.421204 
	C566.195801,583.140564 566.195801,647.070312 566.195618,713.000000 
M532.135925,719.000000 
	C532.135925,652.183838 532.135925,585.367676 532.135925,518.230896 
	C453.329987,518.230896 375.872681,518.230896 297.788605,518.230896 
	C271.072296,604.623962 258.919006,692.666931 259.359161,783.160645 
	C350.783325,783.160645 440.874268,783.160645 532.136047,783.160645 
	C532.136047,762.094849 532.136047,741.547424 532.135925,719.000000 
M685.000000,817.785217 
	C646.055481,817.946228 607.110901,818.106201 568.166504,818.291016 
	C567.906067,818.292236 567.626221,818.614380 567.393311,818.828003 
	C567.149597,819.051697 566.951721,819.325317 566.733826,819.577148 
	C564.835205,842.355164 565.730835,1042.484863 567.758057,1049.771240 
	C645.200989,1049.771240 722.635803,1049.771240 800.552429,1049.771240 
	C823.943970,974.240112 836.269958,897.519348 838.703796,817.785034 
	C787.356140,817.785034 737.178040,817.785034 685.000000,817.785217 
M526.580017,817.803894 
	C438.016022,817.803894 349.451996,817.803894 259.661926,817.803894 
	C262.572479,897.701111 274.453674,974.815674 298.095490,1049.636841 
	C319.689850,1051.917969 524.621338,1050.940430 532.132874,1048.484131 
	C532.132874,1046.020142 532.132874,1043.380249 532.132874,1040.740479 
	C532.132874,969.741455 532.134949,898.742371 532.124207,827.743347 
	C532.123840,825.414429 532.360779,822.987610 531.776123,820.796021 
	C531.460999,819.614685 529.635498,818.836243 526.580017,817.803894 
M232.984116,517.708862 
	C194.026749,517.708923 155.065277,518.006958 116.115250,517.472351 
	C107.730347,517.357300 103.393822,520.274658 100.188889,527.447449 
	C94.761925,539.593201 88.411552,551.331116 83.114243,563.529236 
	C54.134800,630.260132 39.038727,700.039062 37.822639,772.794861 
	C37.764549,776.270203 38.122753,779.752502 38.274071,782.955811 
	C100.974586,782.955811 162.401520,782.955811 224.591202,782.955811 
	C225.487244,692.821533 236.230576,604.706299 262.142395,517.708557 
	C252.199188,517.708557 243.586182,517.708557 232.984116,517.708862 
M974.866638,517.708862 
	C929.285706,517.708862 883.704773,517.708862 836.504211,517.708862 
	C862.191040,605.008850 873.316772,693.115540 873.949402,782.389160 
	C885.522583,784.524780 1052.860352,784.116943 1059.942139,782.105469 
	C1067.704834,717.222595 1032.202881,578.067932 992.172791,517.708618 
	C987.399231,517.708618 982.107178,517.708618 974.866638,517.708862 
M865.751953,910.643005 
	C859.475952,957.633911 849.925537,1003.970825 836.479675,1049.716797 
	C838.903015,1050.114624 839.872314,1050.412476 840.841797,1050.413086 
	C889.140503,1050.444336 937.439697,1050.349487 985.737244,1050.593140 
	C991.428772,1050.621826 993.858948,1048.108765 996.279602,1043.580811 
	C1029.474609,981.485474 1049.566040,915.347595 1057.680420,845.502991 
	C1058.703857,836.693909 1059.092041,827.811035 1059.822021,818.347290 
	C997.418091,818.347290 935.950562,818.347290 874.175110,818.347290 
	C871.397400,848.732422 868.649231,878.795044 865.751953,910.643005 
M228.811661,874.133606 
	C227.562241,855.625366 226.312836,837.117126 225.056702,818.509277 
	C162.619858,818.509277 100.843597,818.509277 38.708157,818.509277 
	C44.106792,901.222717 66.180740,978.215332 105.952148,1049.877686 
	C158.189926,1049.877686 209.705566,1049.877686 261.018036,1049.877686 
	C254.445633,1020.866577 247.047104,992.544006 241.798218,963.828491 
	C236.480026,934.733704 233.286850,905.250549 228.811661,874.133606 
M675.000000,483.651703 
	C712.451660,483.651703 749.903259,483.651703 788.421448,483.651703 
	C787.251526,479.960724 786.688843,477.770477 785.874268,475.678345 
	C775.230469,448.341644 762.943115,421.780884 748.214172,396.385406 
	C727.368408,360.443573 702.877625,327.396057 671.262817,300.066345 
	C644.644104,277.055511 614.908752,259.989410 580.048462,252.930374 
	C575.907471,252.091873 571.638916,251.883621 566.783936,251.306488 
	C566.783936,329.076050 566.783936,405.817139 566.783936,483.651367 
	C602.578064,483.651367 637.789001,483.651367 675.000000,483.651703 
M566.189697,1253.000000 
	C566.189697,1273.836060 566.189697,1294.672119 566.189697,1316.064087 
	C581.379883,1314.995117 594.410034,1311.289062 607.161316,1306.424927 
	C646.191833,1291.536377 677.011902,1265.533203 703.788635,1234.309448 
	C739.975952,1192.112549 765.408752,1143.634277 785.656738,1092.213501 
	C786.470520,1090.146851 786.987671,1087.963257 787.670471,1085.745361 
	C774.996765,1083.579102 573.862183,1084.172119 566.189880,1086.484497 
	C566.189880,1141.172363 566.189880,1196.086182 566.189697,1253.000000 
M464.636200,273.480347 
	C437.307220,288.934235 414.484222,309.740173 394.296021,333.495239 
	C357.624023,376.646515 331.844574,426.071136 311.679840,478.650085 
	C311.158752,480.008820 311.223572,481.592285 311.021484,483.026123 
	C384.829468,483.026123 457.994690,483.026123 531.480103,483.026123 
	C531.480103,405.627777 531.480103,328.853210 531.480103,251.435577 
	C507.321716,253.107727 486.259033,261.802704 464.636200,273.480347 
M532.142334,1233.000000 
	C532.142334,1183.824097 532.142334,1134.648071 532.142334,1085.684326 
	C517.731506,1083.628174 318.620819,1084.194092 311.021881,1086.260498 
	C311.735840,1088.402588 312.259308,1090.633545 313.194092,1092.676147 
	C323.303162,1114.764526 332.622131,1137.268311 343.822723,1158.791626 
	C363.156067,1195.943359 387.281677,1229.830688 417.887390,1258.711670 
	C447.504517,1286.659912 481.074677,1307.508667 521.840881,1314.911011 
	C524.941406,1315.474121 528.124573,1315.581543 532.142395,1315.989258 
	C532.142395,1288.204712 532.142395,1261.602295 532.142334,1233.000000 
M319.863373,306.716370 
	C280.760895,327.268768 244.806808,352.321106 212.327820,382.279846 
	C175.680939,416.083038 133.732803,466.608887 128.629425,483.160156 
	C176.872620,483.160156 224.962860,483.160156 273.398163,483.160156 
	C302.505280,403.605377 341.426788,330.443390 406.321381,272.621033 
	C391.322662,274.316132 354.830200,288.810974 319.863373,306.716370 
M888.685486,384.298035 
	C886.432129,382.323029 884.163086,380.365540 881.927612,378.370483 
	C829.573486,331.646729 770.201660,297.004852 703.605835,274.808136 
	C700.277100,273.698700 696.886780,272.774139 693.525146,271.763489 
	C757.293213,330.415619 796.101257,404.029236 825.211731,482.959717 
	C874.404358,482.959717 922.420532,482.959717 971.823059,482.959717 
	C948.011230,446.194733 920.600342,414.282013 888.685486,384.298035 
M798.153259,1149.121704 
	C788.424438,1166.940918 779.496033,1185.261475 768.739563,1202.437134 
	C758.161011,1219.329102 746.503723,1235.694336 733.888977,1251.120483 
	C721.326233,1266.483032 706.985596,1280.391479 692.457764,1295.974609 
	C773.594421,1270.748657 842.722778,1228.369995 902.212341,1169.973511 
	C931.251770,1141.467651 965.693054,1097.772217 969.141541,1085.031738 
	C921.207458,1085.031738 873.379089,1085.031738 825.665344,1085.031738 
	C816.581177,1106.237793 807.688782,1126.996338 798.153259,1149.121704 
M283.495544,1239.563477 
	C330.406097,1267.954590 387.846527,1293.675659 404.218964,1292.294678 
	C402.452240,1289.966431 399.820099,1288.513672 397.673340,1286.534668 
	C372.287781,1263.132446 350.985748,1236.353271 332.506226,1207.268921 
	C309.916321,1171.715210 292.005646,1133.869629 277.315399,1094.447021 
	C276.077118,1091.123901 274.567474,1087.901978 273.412048,1085.172119 
	C224.506287,1085.172119 176.730072,1085.172119 127.232605,1085.172119 
	C168.836365,1148.041870 220.214752,1198.758911 283.495544,1239.563477 
z"/>
<path fill="#2DAFE6" opacity="1.000000" stroke="none" 
	d="
M1374.000000,1263.517700 
	C1310.727661,1263.517456 1248.455322,1263.517456 1184.949707,1263.517456 
	C1184.195068,1252.932251 1184.289551,1243.171753 1185.005127,1232.013184 
	C1189.239380,1232.013184 1193.118530,1232.001099 1196.997803,1232.015137 
	C1218.986206,1232.094604 1240.950928,1232.242432 1262.732178,1228.214844 
	C1298.412842,1221.617188 1317.086304,1202.745361 1322.240479,1166.670044 
	C1324.073853,1153.838867 1325.471069,1140.855347 1325.768433,1127.911377 
	C1326.786255,1083.604248 1327.740479,1039.284424 1327.795044,994.968323 
	C1327.984253,841.313171 1327.980713,687.657043 1327.559937,534.002625 
	C1327.479614,504.715729 1325.312988,475.427216 1323.769531,446.157349 
	C1323.421753,439.561279 1322.041870,432.945679 1320.473511,426.500580 
	C1313.501709,397.852661 1299.085938,384.078461 1269.986694,380.230408 
	C1251.547974,377.792084 1232.859741,377.168701 1214.265991,376.010986 
	C1207.325439,375.578827 1200.335205,375.941040 1192.190674,375.941040 
	C1191.031250,365.333832 1191.837891,355.307739 1191.667603,344.774506 
	C1205.061890,343.914764 1217.286499,342.983856 1229.527100,342.372528 
	C1262.800293,340.710785 1296.069092,338.874023 1329.359985,337.672394 
	C1388.956909,335.521271 1448.561523,333.501160 1508.176880,331.975555 
	C1547.504517,330.969177 1586.823853,332.227386 1625.983643,336.225555 
	C1675.501465,341.281342 1724.298218,349.719574 1770.292480,369.904816 
	C1815.520874,389.753967 1853.615234,418.585938 1881.315918,459.964264 
	C1901.270630,489.772034 1910.938110,522.927429 1912.342773,558.738464 
	C1913.989014,600.711731 1905.817749,640.242310 1884.228882,676.565125 
	C1862.218018,713.597656 1831.651245,741.685913 1793.784790,761.952881 
	C1759.063843,780.536316 1721.800171,791.391113 1683.175781,798.044312 
	C1675.760742,799.321594 1668.344482,800.592651 1660.568848,801.928406 
	C1672.583374,811.642700 1684.324829,820.335815 1695.152588,830.047546 
	C1722.779053,854.826355 1747.041260,882.832031 1769.683105,912.090942 
	C1804.957886,957.675354 1839.098389,1004.135498 1874.092407,1049.939575 
	C1904.050171,1089.151245 1935.177368,1127.396118 1970.677124,1161.859131 
	C1998.619507,1188.985718 2030.507812,1209.489380 2067.967773,1220.935425 
	C2089.747559,1227.590454 2112.112305,1230.669189 2135.749756,1232.292236 
	C2136.882080,1242.208984 2136.039795,1252.056885 2136.260254,1262.642700 
	C2133.210205,1262.972290 2130.688721,1263.481689 2128.166748,1263.483154 
	C2052.838867,1263.525757 1977.510742,1263.429688 1902.183594,1263.670288 
	C1895.439819,1263.691772 1890.890381,1260.649414 1886.227051,1256.833252 
	C1865.501709,1239.872803 1847.458862,1220.247925 1830.146729,1199.944824 
	C1783.588135,1145.342163 1742.234375,1086.846313 1701.815430,1027.664917 
	C1662.696533,970.387024 1621.645264,914.575989 1576.205933,862.101746 
	C1569.886353,854.803711 1563.021606,847.976685 1556.380005,840.959167 
	C1547.634399,831.718872 1536.958374,826.113098 1524.528687,823.376282 
	C1502.813110,818.594849 1480.928101,820.461914 1458.439575,820.351868 
	C1458.200317,823.982483 1457.841675,826.879089 1457.843018,829.775574 
	C1457.881470,911.436157 1457.626343,993.099060 1458.203735,1074.756104 
	C1458.406128,1103.375366 1460.058350,1132.028320 1462.305420,1160.566895 
	C1463.150513,1171.299927 1466.374146,1182.251831 1470.584961,1192.229736 
	C1479.710571,1213.853394 1497.935425,1224.519165 1520.283203,1227.711914 
	C1537.041870,1230.106323 1554.045654,1231.074097 1570.978271,1231.874023 
	C1584.896362,1232.531616 1598.870239,1232.008179 1613.394775,1232.008179 
	C1615.264648,1242.473633 1614.046265,1252.301636 1614.392700,1263.517944 
	C1534.079712,1263.517944 1454.539917,1263.517944 1374.000000,1263.517700 
M1457.815674,707.000000 
	C1457.815674,733.877136 1457.815674,760.754272 1457.815674,788.383728 
	C1462.650879,788.383728 1466.239258,788.511230 1469.816162,788.363892 
	C1502.751953,787.007202 1535.691284,785.725586 1568.618164,784.175415 
	C1597.319092,782.824158 1625.543213,778.301758 1653.011353,769.773682 
	C1687.482056,759.071533 1716.284668,740.412231 1735.930542,709.300171 
	C1748.883545,688.787231 1757.483765,666.523743 1761.948975,642.734741 
	C1767.754517,611.804688 1769.026245,580.656860 1766.250366,549.268494 
	C1763.557373,518.819031 1756.948364,489.456482 1743.738770,461.786957 
	C1728.626099,430.131073 1707.246704,404.423340 1673.675415,391.249603 
	C1660.400146,386.040253 1646.782593,381.282593 1632.914551,378.077850 
	C1576.906616,365.135284 1520.103760,364.320404 1463.075806,368.513977 
	C1461.516846,368.628601 1460.010498,369.457458 1457.815430,370.168365 
	C1457.815430,481.871460 1457.815430,593.435730 1457.815674,707.000000 
z"/>
<path fill="#2DAFE6" opacity="1.000000" stroke="none" 
	d="
M2170.590820,1240.463623 
	C2170.864990,1237.302124 2171.138184,1235.064209 2171.510254,1232.015869 
	C2181.861816,1232.015869 2191.823975,1232.456421 2201.732666,1231.918945 
	C2219.328369,1230.964355 2237.046143,1230.462769 2254.436279,1227.897461 
	C2289.521973,1222.721436 2310.157227,1200.759399 2313.955566,1165.352173 
	C2315.978027,1146.498901 2317.734131,1127.514282 2317.864014,1108.577148 
	C2318.683838,988.931458 2319.053711,869.282532 2319.484131,749.634460 
	C2319.625732,710.305176 2319.719482,670.973511 2319.452148,631.645569 
	C2319.125732,583.657349 2318.856689,535.659851 2317.614014,487.690948 
	C2317.115479,468.453522 2314.115479,449.279022 2312.178223,430.083527 
	C2311.979980,428.117859 2311.270996,426.201904 2310.779053,424.267914 
	C2304.235352,398.531586 2288.086426,383.134064 2261.506104,380.221405 
	C2242.338867,378.121033 2223.037598,377.176758 2203.778564,376.006805 
	C2196.491211,375.564087 2189.154297,375.934967 2180.581299,375.934967 
	C2179.617188,365.662964 2180.262207,355.829346 2180.149658,345.008728 
	C2183.380371,344.713135 2186.217773,344.289062 2189.063965,344.218048 
	C2224.709229,343.328705 2260.362061,342.696411 2296.000488,341.594849 
	C2363.272705,339.515564 2430.523926,336.344025 2497.809814,335.301514 
	C2530.036377,334.802155 2562.352295,337.677734 2594.572510,339.848389 
	C2626.853760,342.023071 2658.641357,347.769073 2689.928711,356.036713 
	C2728.223633,366.156219 2764.633789,380.523499 2796.291992,405.021240 
	C2838.582275,437.746185 2860.646729,481.091248 2864.348877,534.300964 
	C2866.148682,560.169373 2864.295654,585.578247 2857.132080,610.456970 
	C2845.508301,650.827209 2821.114746,682.063782 2787.273682,706.316772 
	C2754.843506,729.558228 2718.383545,743.895569 2680.133545,753.923950 
	C2660.850830,758.979553 2641.245117,762.804749 2619.745117,767.645813 
	C2624.797363,768.579163 2628.256104,769.484863 2631.769287,769.826294 
	C2671.348389,773.672729 2710.180176,781.101257 2747.765625,794.297302 
	C2787.280762,808.170898 2822.871338,828.410278 2852.078857,859.013916 
	C2890.298340,899.060425 2910.462158,946.553040 2912.373291,1001.961426 
	C2913.896240,1046.116943 2906.765137,1088.402100 2885.184326,1127.325195 
	C2851.599121,1187.899658 2801.089600,1227.044067 2733.753906,1243.869141 
	C2696.169922,1253.260254 2657.809082,1257.487671 2619.219482,1260.210205 
	C2567.970459,1263.825684 2516.660156,1263.530884 2465.344971,1263.523682 
	C2371.686768,1263.510376 2278.028564,1263.519897 2184.370361,1263.519897 
	C2180.401123,1263.519897 2176.431885,1263.519897 2172.303955,1263.519897 
	C2169.167480,1255.912842 2171.208008,1248.533813 2170.590820,1240.463623 
M2632.758545,801.933472 
	C2603.749512,793.849731 2574.038574,789.682068 2544.092285,788.440308 
	C2515.486816,787.254089 2486.798584,788.042603 2458.146729,788.033569 
	C2455.570068,788.032715 2452.993408,788.548279 2449.407471,788.932068 
	C2449.407471,792.944641 2449.407471,796.524902 2449.407471,800.105225 
	C2449.407715,867.750488 2449.087402,935.397766 2449.520264,1003.040222 
	C2449.812500,1048.674561 2450.796631,1094.314209 2452.283936,1139.924927 
	C2452.702637,1152.775269 2454.787354,1165.863647 2458.207764,1178.263550 
	C2465.452148,1204.522827 2482.297607,1221.443604 2509.958984,1226.240967 
	C2552.584961,1233.633423 2594.924316,1232.063721 2636.693604,1221.043823 
	C2698.059326,1204.853760 2737.884766,1165.714355 2757.041748,1105.451782 
	C2763.619629,1084.759399 2767.089111,1063.445312 2768.792236,1041.770874 
	C2771.893311,1002.304199 2770.410156,963.215515 2759.932861,924.847778 
	C2749.635010,887.136902 2730.672852,854.954102 2698.563477,831.538879 
	C2679.174316,817.399658 2657.136963,808.988892 2632.758545,801.933472 
M2528.808594,368.093567 
	C2502.618652,368.049744 2476.381836,366.749084 2449.997803,370.266937 
	C2449.997803,498.783112 2449.997803,626.535217 2449.997803,755.105896 
	C2454.118652,755.321777 2457.704834,755.733276 2461.281250,755.660217 
	C2482.583984,755.225403 2503.899902,755.027100 2525.181885,754.082825 
	C2552.839844,752.855591 2580.199219,749.044373 2606.950439,741.770996 
	C2629.255859,735.706299 2650.604980,727.330200 2668.782471,712.495728 
	C2693.800049,692.078735 2708.400879,665.074036 2715.896484,634.308228 
	C2728.328125,583.282898 2728.472168,531.747437 2715.491699,481.021423 
	C2701.512451,426.390106 2665.662354,392.019836 2610.874756,377.904602 
	C2584.613770,371.138855 2557.687012,369.509064 2528.808594,368.093567 
z"/>
<path fill="#2DAFE6" opacity="1.000000" stroke="none" 
	d="
M3103.609131,884.000000 
	C3103.590820,774.019104 3103.863770,665.036987 3103.385010,556.058105 
	C3103.232910,521.431274 3101.630127,486.780151 3099.550537,452.208740 
	C3098.802002,439.759460 3095.767334,427.166504 3091.891357,415.252167 
	C3086.005127,397.156891 3072.968750,385.975616 3054.089355,381.855621 
	C3033.140381,377.283966 3011.908203,376.039703 2990.558105,375.955933 
	C2981.319824,375.919678 2972.081543,375.949860 2962.418213,375.949860 
	C2962.418213,364.960541 2962.418213,355.178101 2962.418213,344.880615 
	C3098.868896,344.880615 3234.709717,344.880615 3371.718506,344.880615 
	C3371.878662,349.824463 3372.097900,354.664795 3372.174561,359.507446 
	C3372.252930,364.468842 3372.191895,369.432465 3372.191895,375.477661 
	C3368.042480,375.636444 3364.508789,375.896210 3360.975586,375.886688 
	C3337.978516,375.824677 3315.048828,376.347595 3292.215088,379.760590 
	C3263.915527,383.990631 3247.593994,396.217163 3240.246826,429.527161 
	C3237.751221,440.841675 3236.522705,452.587280 3236.123779,464.184296 
	C3234.898682,499.808502 3233.691650,535.455811 3233.669434,571.094849 
	C3233.593262,694.738220 3233.512207,818.386047 3234.538086,942.023071 
	C3234.888916,984.262939 3237.932129,1026.492920 3245.320312,1068.294556 
	C3252.797607,1110.600586 3274.676025,1144.089966 3306.108643,1172.296021 
	C3344.755371,1206.975220 3390.687012,1224.252930 3441.584717,1230.313232 
	C3489.709229,1236.043579 3537.414551,1234.103760 3584.323975,1221.791992 
	C3634.378906,1208.654663 3680.184082,1186.678833 3717.271729,1149.839966 
	C3752.067627,1115.277344 3773.626709,1073.262085 3780.138916,1024.397705 
	C3783.168701,1001.663513 3785.555908,978.658997 3785.725342,955.758484 
	C3786.757080,816.465149 3787.342773,677.166504 3787.379883,537.869507 
	C3787.387207,510.305695 3786.224609,482.615448 3780.633057,455.347107 
	C3773.953369,422.772552 3754.456055,401.527649 3724.071045,389.523956 
	C3703.082764,381.232391 3680.901123,378.691071 3658.716797,376.213165 
	C3656.785889,375.997467 3654.860596,375.732544 3652.426758,375.426971 
	C3652.426758,365.211029 3652.426758,355.399017 3652.426758,344.973175 
	C3752.013672,344.973175 3851.169189,344.973175 3951.485352,344.973175 
	C3951.624268,349.889465 3951.815918,354.742126 3951.883301,359.596497 
	C3951.951904,364.551758 3951.898438,369.508667 3951.898438,375.094635 
	C3940.551514,376.788910 3929.743408,378.070770 3919.067627,380.063080 
	C3893.712402,384.795074 3870.687012,394.229065 3851.882080,412.794861 
	C3835.227539,429.237549 3825.660400,448.850922 3824.136475,472.023529 
	C3822.345459,499.264160 3820.372314,526.555908 3820.258545,553.832947 
	C3819.742920,677.475891 3820.109131,801.122498 3819.595703,924.765442 
	C3819.429688,964.728271 3817.324219,1004.674438 3811.794434,1044.332642 
	C3807.498779,1075.140869 3796.240479,1103.426514 3780.381104,1130.034058 
	C3754.665527,1173.177002 3719.440430,1206.274902 3675.407959,1230.259888 
	C3633.716064,1252.969849 3589.289795,1267.140991 3542.418701,1274.239014 
	C3496.364258,1281.213379 3450.163086,1281.883301 3403.904053,1277.718018 
	C3349.362549,1272.807373 3296.897705,1260.061523 3248.280762,1233.884644 
	C3212.378906,1214.553589 3180.484863,1190.407227 3155.767578,1157.496582 
	C3134.342285,1128.968994 3121.801758,1096.586914 3114.078857,1062.122314 
	C3107.062988,1030.812500 3103.778076,999.065491 3103.714600,966.985291 
	C3103.660645,939.656921 3103.643066,912.328430 3103.609131,884.000000 
z"/>
<path fill="#2DAFE6" opacity="1.000000" stroke="none" 
	d="
M4234.999512,1251.032959 
	C4191.817871,1230.477417 4156.440918,1201.046265 4124.794434,1164.707397 
	C4122.160156,1168.824951 4119.919922,1171.954834 4118.059570,1175.296265 
	C4106.104004,1196.764038 4099.359863,1220.061646 4094.141113,1243.888062 
	C4093.444580,1247.067993 4092.621338,1250.220337 4091.826172,1253.511963 
	C4080.865723,1253.511963 4070.608887,1253.511963 4060.458252,1253.511963 
	C4058.436523,1245.907227 4057.965820,971.017761 4059.976807,958.960327 
	C4070.293213,958.960327 4080.753906,958.960327 4092.033203,958.960327 
	C4093.955566,967.428833 4095.899902,976.144043 4097.914551,984.843079 
	C4109.157715,1033.396118 4124.590332,1080.398560 4149.698730,1123.775269 
	C4171.056152,1160.670532 4198.175293,1192.203979 4234.884277,1214.745239 
	C4265.280273,1233.410400 4298.447266,1243.146729 4333.848145,1246.386719 
	C4366.395996,1249.365601 4398.314453,1246.816528 4429.829102,1238.166138 
	C4503.919434,1217.829102 4551.297363,1145.187500 4556.570312,1088.016724 
	C4560.865234,1041.447754 4551.083008,999.305725 4521.223145,962.699463 
	C4505.453125,943.366638 4485.513672,928.810974 4464.750000,915.366455 
	C4424.615234,889.379211 4381.371582,869.433899 4337.785645,850.139099 
	C4286.284668,827.340515 4235.260254,803.550354 4187.371094,773.672913 
	C4125.391602,735.005005 4085.885742,679.838989 4071.136230,608.440552 
	C4058.437744,546.968567 4065.104004,487.391022 4099.642090,433.455933 
	C4135.435547,377.559235 4186.434570,343.058258 4252.152344,331.931152 
	C4310.008789,322.135071 4366.365234,328.172028 4420.318848,351.925262 
	C4442.802246,361.823639 4462.102051,376.723267 4480.048828,393.299103 
	C4490.559082,403.006775 4500.576660,413.247955 4511.792969,424.203064 
	C4521.182617,413.242889 4529.300781,401.242889 4534.370117,387.602997 
	C4539.442383,373.955353 4543.175781,359.810089 4547.966797,344.365173 
	C4551.109863,344.365173 4555.671387,344.365173 4560.232422,344.365173 
	C4564.801270,344.365173 4569.370117,344.365173 4574.589844,344.365173 
	C4574.589844,424.986969 4574.589844,504.446747 4574.589844,584.651978 
	C4565.033203,584.651978 4555.903809,584.651978 4546.059082,584.651978 
	C4544.082520,577.748962 4542.119629,570.747009 4540.072754,563.769348 
	C4526.113770,516.191956 4505.000488,472.438873 4471.365723,435.390320 
	C4436.204102,396.659454 4393.849121,370.641846 4341.532227,362.666260 
	C4309.841309,357.835022 4278.366699,359.406616 4247.548828,368.522797 
	C4207.940430,380.239105 4182.507324,407.741394 4166.171387,444.322723 
	C4141.874512,498.731323 4152.097656,567.755920 4205.642090,613.978149 
	C4234.613281,638.987488 4266.922363,658.892334 4300.846680,676.080811 
	C4335.296387,693.535767 4370.419922,709.667786 4405.317383,726.232666 
	C4447.450684,746.231995 4489.701172,766.015503 4529.848633,789.868530 
	C4599.457031,831.225891 4638.928711,892.621887 4650.268066,972.431396 
	C4656.444824,1015.897217 4654.309082,1059.060669 4641.047852,1100.922485 
	C4614.655762,1184.232422 4558.174805,1238.363770 4475.730469,1265.273926 
	C4430.838379,1279.926880 4384.405762,1282.709351 4337.436523,1278.510864 
	C4301.894043,1275.333984 4268.054688,1266.185913 4234.999512,1251.032959 
z"/>
<path fill="#30B0E6" opacity="1.000000" stroke="none" 
	d="
M4762.377930,1411.481445 
	C4774.142090,1436.207642 4785.077148,1460.519409 4797.183105,1484.233276 
	C4811.041504,1511.380981 4798.679688,1542.160645 4771.819336,1554.488281 
	C4745.799805,1566.429810 4720.107910,1579.084106 4694.254395,1591.389526 
	C4630.521973,1621.724243 4566.737793,1651.951172 4503.078125,1682.437622 
	C4490.799805,1688.317505 4478.278320,1690.105957 4465.254395,1686.715942 
	C4450.157715,1682.786255 4439.630859,1673.154541 4432.955078,1659.103760 
	C4416.810547,1625.120850 4400.574707,1591.181274 4384.389648,1557.217285 
	C4372.788574,1532.872070 4361.163574,1508.538452 4349.639648,1484.156738 
	C4340.442871,1464.699585 4342.951172,1446.341919 4356.572266,1430.096680 
	C4361.331543,1424.420410 4367.930176,1419.593872 4374.642090,1416.354736 
	C4436.111328,1386.690918 4497.792480,1357.467407 4559.406738,1328.104248 
	C4586.756836,1315.070190 4614.087402,1301.994263 4641.442871,1288.971313 
	C4649.585449,1285.094971 4657.816895,1281.709717 4667.139648,1281.667603 
	C4688.519043,1281.571045 4704.464844,1290.542114 4713.838867,1309.863037 
	C4729.534180,1342.214111 4744.852539,1374.747925 4760.330078,1407.204224 
	C4760.903320,1408.406616 4761.487305,1409.603516 4762.377930,1411.481445 
M4575.117676,1517.828613 
	C4560.060059,1513.981934 4545.002441,1510.135254 4529.305176,1506.125122 
	C4513.865234,1558.417969 4498.527344,1609.786987 4483.517090,1661.994629 
	C4493.904785,1660.134155 4760.951660,1532.688843 4768.129883,1526.301636 
	C4718.092285,1505.434570 4668.493652,1484.750488 4618.421875,1463.869141 
	C4616.717285,1467.207764 4615.292969,1469.776123 4614.067383,1472.436401 
	C4608.497070,1484.526489 4603.078613,1496.687500 4597.417969,1508.735107 
	C4592.460449,1519.284912 4588.543945,1520.953735 4575.117676,1517.828613 
M4628.278809,1381.247559 
	C4638.883301,1357.587891 4649.488770,1333.928711 4660.064453,1310.256348 
	C4660.146973,1310.071899 4659.864258,1309.672363 4659.675781,1309.433838 
	C4659.487793,1309.195923 4659.202637,1309.034180 4658.445801,1308.424561 
	C4566.573730,1352.218018 4474.443848,1396.134155 4382.313965,1440.050293 
	C4382.376465,1440.822144 4382.438965,1441.593994 4382.501465,1442.365845 
	C4447.309082,1459.045044 4512.116699,1475.724243 4577.260254,1492.489990 
	C4594.395996,1455.179688 4611.053223,1418.910278 4628.278809,1381.247559 
M4395.599121,1521.377441 
	C4402.594727,1536.104126 4409.578613,1550.836182 4416.588867,1565.555786 
	C4423.456055,1579.974976 4430.231934,1594.439087 4437.265137,1608.776978 
	C4444.279785,1623.076904 4450.124023,1638.006104 4459.595215,1653.713135 
	C4475.088867,1601.023315 4489.858887,1550.796387 4504.875488,1499.729004 
	C4459.616699,1488.088745 4415.689941,1476.791016 4369.679688,1464.957397 
	C4377.462402,1485.260620 4386.814453,1502.380127 4395.599121,1521.377441 
M4770.503906,1500.079590 
	C4771.958496,1500.560059 4773.412598,1501.040405 4775.212402,1501.634766 
	C4773.382812,1491.801025 4692.365723,1322.233643 4686.892090,1316.322876 
	C4680.671387,1324.795898 4631.272949,1433.752197 4630.313965,1441.542969 
	C4676.490723,1460.842529 4722.816406,1480.204346 4770.503906,1500.079590 
z"/>
<path fill="#2EAFE6" opacity="1.000000" stroke="none" 
	d="
M2622.845703,1428.765869 
	C2657.891113,1412.025513 2693.482910,1410.122559 2729.497559,1421.287354 
	C2764.932373,1432.272583 2789.106445,1456.074219 2801.042480,1491.106567 
	C2812.270508,1524.061157 2812.098633,1557.374634 2798.025879,1589.615967 
	C2781.061768,1628.481689 2750.075195,1650.024536 2709.162109,1657.737427 
	C2682.764404,1662.713867 2656.671387,1660.710693 2631.749023,1650.073730 
	C2590.734131,1632.568848 2568.449707,1600.668701 2562.198486,1557.181274 
	C2559.078369,1535.474365 2560.904297,1513.944702 2568.120605,1493.131714 
	C2577.904541,1464.913818 2595.481934,1443.124634 2622.845703,1428.765869 
M2618.254639,1487.507324 
	C2603.635986,1511.312744 2601.240723,1536.815796 2608.212646,1563.399292 
	C2616.715820,1595.820312 2643.712646,1619.192383 2675.264160,1621.927856 
	C2711.648682,1625.082397 2742.002197,1608.538818 2756.178955,1577.467285 
	C2766.247070,1555.400879 2767.401367,1532.411987 2761.177734,1509.212036 
	C2757.224121,1494.473999 2749.199463,1481.887573 2737.708740,1471.627197 
	C2705.171631,1442.574707 2645.934082,1445.412964 2618.254639,1487.507324 
z"/>
<path fill="#2EAFE6" opacity="1.000000" stroke="none" 
	d="
M3318.297119,1522.075928 
	C3307.013916,1539.031860 3301.570068,1542.655640 3273.460938,1551.943115 
	C3293.621826,1585.631592 3313.659912,1619.114380 3334.314453,1653.627686 
	C3316.864014,1653.627686 3301.008057,1653.627686 3284.206543,1653.627686 
	C3277.384766,1641.232666 3270.327637,1628.461426 3263.319092,1615.663818 
	C3253.726318,1598.147583 3243.984375,1580.708740 3234.710205,1563.024902 
	C3231.903320,1557.673218 3228.700684,1554.926758 3222.378906,1555.411499 
	C3215.467529,1555.941284 3208.484131,1555.531860 3200.425293,1555.531860 
	C3200.425293,1588.397095 3200.425293,1620.522705 3200.425293,1653.361084 
	C3186.184082,1653.361084 3173.031250,1653.361084 3159.825684,1653.361084 
	C3157.853271,1646.426514 3157.449951,1432.099487 3159.545166,1420.919312 
	C3161.964111,1420.755493 3164.543701,1420.431763 3167.123779,1420.428955 
	C3191.766846,1420.401978 3216.412842,1420.215210 3241.052246,1420.518433 
	C3256.735596,1420.711426 3272.301270,1422.410645 3287.105225,1428.135010 
	C3307.478271,1436.012939 3321.512939,1449.945557 3325.239258,1471.902954 
	C3328.112305,1488.832764 3327.484375,1505.809570 3318.297119,1522.075928 
M3282.058594,1496.484985 
	C3285.003906,1474.847046 3278.349365,1463.165894 3259.499023,1458.785278 
	C3240.255127,1454.313232 3220.682617,1456.508789 3201.377441,1456.463257 
	C3199.166992,1468.495972 3199.631836,1512.410522 3202.269531,1520.395142 
	C3219.450684,1519.630981 3237.040283,1519.444336 3254.505127,1517.871338 
	C3267.004639,1516.745605 3277.494141,1511.257080 3282.058594,1496.484985 
z"/>
<path fill="#2EAFE6" opacity="1.000000" stroke="none" 
	d="
M3509.008301,1619.062744 
	C3498.594971,1599.999268 3488.302490,1581.702881 3478.669434,1563.065796 
	C3475.586670,1557.101807 3471.852783,1554.875610 3465.323486,1555.413452 
	C3458.745117,1555.955322 3452.087158,1555.532837 3444.331055,1555.532837 
	C3444.331055,1588.403931 3444.331055,1620.543457 3444.331055,1653.377686 
	C3430.058350,1653.377686 3416.908203,1653.377686 3403.733398,1653.377686 
	C3401.828125,1646.301270 3401.009033,1440.625366 3402.902344,1421.233398 
	C3405.267822,1420.970337 3407.798828,1420.448975 3410.331055,1420.444336 
	C3435.657715,1420.397827 3460.988525,1420.163940 3486.309570,1420.553833 
	C3501.313721,1420.784912 3516.204102,1422.565308 3530.438477,1427.914551 
	C3556.180176,1437.588501 3569.761719,1456.785034 3570.310059,1484.246704 
	C3570.503906,1493.965942 3569.906738,1503.520264 3566.442383,1512.762329 
	C3559.806641,1530.464844 3547.596680,1542.273315 3529.604492,1548.048462 
	C3525.901855,1549.236938 3522.108154,1550.141724 3517.025635,1551.544434 
	C3537.399414,1585.542114 3557.345459,1618.825562 3578.296387,1653.786011 
	C3568.738037,1653.899414 3560.673096,1654.032104 3552.607666,1654.080566 
	C3544.643555,1654.128296 3536.678711,1654.090942 3528.303955,1654.090942 
	C3521.879150,1642.411133 3515.632080,1631.054443 3509.008301,1619.062744 
M3457.219727,1456.223145 
	C3453.029297,1456.304688 3448.838623,1456.386230 3444.843262,1456.463989 
	C3443.077393,1472.261230 3443.650879,1512.029419 3445.544434,1518.838745 
	C3460.822021,1518.838745 3476.065186,1519.110107 3491.289795,1518.696167 
	C3496.850342,1518.545166 3502.570312,1517.375122 3507.862793,1515.608032 
	C3520.892334,1511.257568 3526.719971,1502.021606 3526.646240,1487.224243 
	C3526.575439,1472.939453 3520.853027,1464.649902 3507.654541,1460.099243 
	C3504.537842,1459.024536 3501.245361,1458.051392 3497.986816,1457.868042 
	C3485.058105,1457.139771 3472.110596,1456.742920 3457.219727,1456.223145 
z"/>
<path fill="#2EAFE6" opacity="1.000000" stroke="none" 
	d="
M4011.835205,1500.000000 
	C4011.835205,1473.379150 4011.835205,1447.758301 4011.835205,1421.338989 
	C4014.825684,1420.990723 4017.328369,1420.450928 4019.831787,1420.446289 
	C4045.142334,1420.398926 4070.470703,1419.880981 4095.755859,1420.691284 
	C4108.285645,1421.092773 4121.065430,1422.748901 4133.160156,1425.978394 
	C4169.236328,1435.611206 4184.547363,1463.099731 4178.980957,1500.091309 
	C4175.021973,1526.398315 4159.502441,1543.188843 4133.381836,1549.679077 
	C4131.550293,1550.134155 4129.731934,1550.645508 4126.459473,1551.515991 
	C4146.847168,1585.578979 4166.723145,1618.786987 4187.365234,1653.274658 
	C4183.359863,1653.640259 4180.892090,1654.043457 4178.422363,1654.060181 
	C4167.765625,1654.132202 4157.086914,1653.680786 4146.458984,1654.241699 
	C4139.886719,1654.588623 4136.409180,1652.442627 4133.265625,1646.510620 
	C4118.615234,1618.865601 4103.137695,1591.658813 4088.517578,1563.998413 
	C4085.052490,1557.443115 4081.096680,1554.716919 4073.809814,1555.409302 
	C4067.597168,1555.999634 4061.283936,1555.531250 4053.887695,1555.531250 
	C4053.887695,1588.477417 4053.887695,1620.589844 4053.887695,1653.386230 
	C4039.627686,1653.386230 4026.499023,1653.386230 4013.298584,1653.386230 
	C4013.097900,1653.170288 4012.843750,1652.945557 4012.651855,1652.676636 
	C4012.468750,1652.419922 4012.222168,1652.117554 4012.221191,1651.834839 
	C4012.079590,1601.556519 4011.957764,1551.278320 4011.835205,1500.000000 
M4076.990234,1519.713623 
	C4081.972168,1519.698853 4087.011719,1520.158447 4091.923828,1519.565552 
	C4100.775391,1518.496948 4109.863281,1517.786865 4118.285645,1515.130127 
	C4130.801758,1511.181885 4136.250488,1501.573242 4136.168457,1487.214355 
	C4136.091309,1473.709351 4130.221680,1464.834351 4118.061523,1460.379028 
	C4114.666992,1459.135254 4111.031738,1458.050293 4107.458984,1457.878662 
	C4091.895508,1457.130859 4076.315430,1456.700928 4060.738037,1456.282349 
	C4058.555664,1456.223633 4056.354248,1456.867432 4054.316162,1457.163574 
	C4052.638184,1473.766479 4053.266113,1512.023193 4055.468750,1519.713379 
	C4061.833008,1519.713379 4068.427734,1519.713379 4076.990234,1519.713623 
z"/>
<path fill="#2EAFE6" opacity="1.000000" stroke="none" 
	d="
M3852.001953,1458.208252 
	C3839.738525,1458.208374 3828.474365,1458.208374 3816.549072,1458.208374 
	C3816.549072,1477.537231 3816.549072,1495.987427 3816.549072,1515.666748 
	C3851.872559,1515.666748 3886.986328,1515.666748 3922.473145,1515.666748 
	C3922.473145,1528.711426 3922.473145,1540.526978 3922.473145,1553.317261 
	C3886.985352,1553.317261 3852.142822,1553.317261 3816.591797,1553.317261 
	C3816.591797,1574.426758 3816.591797,1594.571167 3816.591797,1616.138794 
	C3855.336426,1616.458252 3894.156738,1616.101318 3932.788086,1616.335205 
	C3935.418457,1623.534912 3935.861816,1641.860474 3933.720215,1653.488525 
	C3881.033936,1653.488525 3828.234375,1653.488525 3774.760742,1653.488525 
	C3774.760742,1576.079224 3774.760742,1498.954468 3774.760742,1421.116821 
	C3825.725830,1421.116821 3876.546387,1421.116821 3928.624512,1421.116821 
	C3929.496826,1433.176514 3928.963135,1445.279785 3928.884521,1458.208252 
	C3902.900635,1458.208252 3877.950928,1458.208252 3852.001953,1458.208252 
z"/>
<path fill="#2EAFE6" opacity="1.000000" stroke="none" 
	d="
M3030.086914,1646.191650 
	C2996.631592,1664.235840 2963.066162,1665.401978 2929.817871,1648.840454 
	C2900.889893,1634.430908 2885.938477,1609.656494 2883.976074,1577.641968 
	C2882.897461,1560.042847 2883.582275,1542.332642 2883.559570,1524.672363 
	C2883.520264,1494.014771 2883.548340,1463.357300 2883.548340,1432.699707 
	C2883.548340,1429.074951 2883.548340,1425.450195 2883.548340,1421.118408 
	C2897.459717,1421.118408 2910.584473,1421.118408 2924.691162,1421.118408 
	C2924.871094,1424.921631 2925.182861,1428.480347 2925.185791,1432.039185 
	C2925.220215,1475.692871 2925.019287,1519.348145 2925.374268,1562.998901 
	C2925.443848,1571.529663 2926.320312,1580.496460 2929.090820,1588.475220 
	C2935.875488,1608.014282 2950.590088,1618.402588 2971.145264,1619.968384 
	C2977.395996,1620.444458 2983.908203,1620.319214 2990.033203,1619.112305 
	C3014.433350,1614.304077 3029.450928,1594.257812 3029.687256,1566.364258 
	C3029.912842,1539.707397 3029.743652,1513.047119 3029.746094,1486.388428 
	C3029.747803,1468.060547 3029.746338,1449.732666 3029.746338,1431.404785 
	C3029.746338,1428.144043 3029.746338,1424.883179 3029.746338,1421.027832 
	C3043.870361,1421.027832 3057.015625,1421.027832 3070.792969,1421.027832 
	C3071.055420,1423.837891 3071.500732,1426.393188 3071.502930,1428.948730 
	C3071.540039,1475.268311 3071.735352,1521.589111 3071.446777,1567.906860 
	C3071.242188,1600.703003 3058.782959,1627.428223 3030.086914,1646.191650 
z"/>
<path fill="#2EAFE6" opacity="1.000000" stroke="none" 
	d="
M2301.981934,1508.147949 
	C2314.213135,1457.676270 2345.099365,1427.137939 2395.282959,1417.200317 
	C2423.816406,1411.549805 2451.704346,1413.859497 2477.529297,1428.838501 
	C2487.420654,1434.575562 2495.818848,1442.090820 2503.981689,1451.834351 
	C2493.144043,1459.786011 2482.552734,1467.556763 2472.112549,1475.216797 
	C2470.501465,1474.000244 2469.583252,1473.523438 2468.949951,1472.797729 
	C2439.498047,1439.043945 2379.883789,1449.303955 2355.993896,1487.805542 
	C2336.096924,1519.872192 2338.519287,1565.490601 2362.223389,1594.789429 
	C2383.987549,1621.690308 2426.079346,1631.193604 2454.118164,1613.067871 
	C2461.843994,1608.073486 2468.388184,1601.251587 2476.091309,1594.747314 
	C2486.629639,1602.262207 2497.662598,1610.130005 2508.978271,1618.199463 
	C2501.346680,1630.320435 2491.630615,1638.834717 2480.308350,1645.332764 
	C2433.083496,1672.435425 2356.516602,1663.215210 2320.686768,1611.270020 
	C2304.339844,1587.570801 2298.041748,1561.130615 2299.031738,1532.760376 
	C2299.308838,1524.813110 2300.884033,1516.911011 2301.981934,1508.147949 
z"/>
<path fill="#2DAFE6" opacity="1.000000" stroke="none" 
	d="
M3686.616699,1456.001953 
	C3686.616943,1522.234741 3686.616943,1587.468262 3686.616943,1653.389526 
	C3672.947754,1653.389526 3660.116211,1653.389526 3647.248047,1653.389526 
	C3645.137939,1646.511597 3644.657959,1432.090210 3646.866943,1420.976318 
	C3659.573730,1420.976318 3672.393311,1420.976318 3686.616455,1420.976318 
	C3686.616455,1432.594238 3686.616455,1443.798462 3686.616699,1456.001953 
z"/>
<path fill="#FEFEFF" opacity="1.000000" stroke="none" 
	d="
M566.195679,712.000000 
	C566.195801,647.070312 566.195801,583.140564 566.195801,519.421204 
	C574.389893,517.311462 779.365723,516.481995 800.707397,518.389526 
	C827.812134,603.953735 838.928589,692.214294 839.727356,781.905640 
	C831.554138,784.098633 578.382202,784.507324 566.195618,782.343384 
	C566.195618,759.411255 566.195618,736.205627 566.195679,712.000000 
z"/>
<path fill="#FEFFFF" opacity="1.000000" stroke="none" 
	d="
M532.135986,720.000000 
	C532.136047,741.547424 532.136047,762.094849 532.136047,783.160645 
	C440.874268,783.160645 350.783325,783.160645 259.359161,783.160645 
	C258.919006,692.666931 271.072296,604.623962 297.788605,518.230896 
	C375.872681,518.230896 453.329987,518.230896 532.135925,518.230896 
	C532.135925,585.367676 532.135925,652.183838 532.135986,720.000000 
z"/>
<path fill="#FEFFFF" opacity="1.000000" stroke="none" 
	d="
M686.000000,817.785156 
	C737.178040,817.785034 787.356140,817.785034 838.703796,817.785034 
	C836.269958,897.519348 823.943970,974.240112 800.552429,1049.771240 
	C722.635803,1049.771240 645.200989,1049.771240 567.758057,1049.771240 
	C565.730835,1042.484863 564.835205,842.355164 566.733765,819.577148 
	C566.951721,819.325317 567.149597,819.051697 567.393311,818.828003 
	C567.626221,818.614380 567.906067,818.292236 568.166504,818.291016 
	C607.110901,818.106201 646.055481,817.946228 686.000000,817.785156 
z"/>
<path fill="#FFFFFF" opacity="1.000000" stroke="none" 
	d="
M527.535767,817.839966 
	C529.635498,818.836243 531.460999,819.614685 531.776123,820.796021 
	C532.360779,822.987610 532.123840,825.414429 532.124207,827.743347 
	C532.134949,898.742371 532.132874,969.741455 532.132874,1040.740479 
	C532.132874,1043.380249 532.132874,1046.020142 532.132874,1048.484131 
	C524.621338,1050.940430 319.689850,1051.917969 298.095490,1049.636841 
	C274.453674,974.815674 262.572479,897.701111 259.661926,817.803894 
	C349.451996,817.803894 438.016022,817.803894 527.535767,817.839966 
z"/>
<path fill="#FEFEFF" opacity="1.000000" stroke="none" 
	d="
M233.978638,517.708740 
	C243.586182,517.708557 252.199188,517.708557 262.142395,517.708557 
	C236.230576,604.706299 225.487244,692.821533 224.591202,782.955811 
	C162.401520,782.955811 100.974586,782.955811 38.274071,782.955811 
	C38.122753,779.752502 37.764549,776.270203 37.822639,772.794861 
	C39.038727,700.039062 54.134800,630.260132 83.114243,563.529236 
	C88.411552,551.331116 94.761925,539.593201 100.188889,527.447449 
	C103.393822,520.274658 107.730347,517.357300 116.115250,517.472351 
	C155.065277,518.006958 194.026749,517.708923 233.978638,517.708740 
z"/>
<path fill="#FEFEFF" opacity="1.000000" stroke="none" 
	d="
M975.840820,517.708740 
	C982.107178,517.708618 987.399231,517.708618 992.172791,517.708618 
	C1032.202881,578.067932 1067.704834,717.222595 1059.942139,782.105469 
	C1052.860352,784.116943 885.522583,784.524780 873.949402,782.389160 
	C873.316772,693.115540 862.191040,605.008850 836.504211,517.708862 
	C883.704773,517.708862 929.285706,517.708862 975.840820,517.708740 
z"/>
<path fill="#FEFFFF" opacity="1.000000" stroke="none" 
	d="
M865.826538,909.750305 
	C868.649231,878.795044 871.397400,848.732422 874.175110,818.347290 
	C935.950562,818.347290 997.418091,818.347290 1059.822021,818.347290 
	C1059.092041,827.811035 1058.703857,836.693909 1057.680420,845.502991 
	C1049.566040,915.347595 1029.474609,981.485474 996.279602,1043.580811 
	C993.858948,1048.108765 991.428772,1050.621826 985.737244,1050.593140 
	C937.439697,1050.349487 889.140503,1050.444336 840.841797,1050.413086 
	C839.872314,1050.412476 838.903015,1050.114624 836.479675,1049.716797 
	C849.925537,1003.970825 859.475952,957.633911 865.826538,909.750305 
z"/>
<path fill="#FEFFFF" opacity="1.000000" stroke="none" 
	d="
M228.987305,875.035522 
	C233.286850,905.250549 236.480026,934.733704 241.798218,963.828491 
	C247.047104,992.544006 254.445633,1020.866577 261.018036,1049.877686 
	C209.705566,1049.877686 158.189926,1049.877686 105.952148,1049.877686 
	C66.180740,978.215332 44.106792,901.222717 38.708157,818.509277 
	C100.843597,818.509277 162.619858,818.509277 225.056702,818.509277 
	C226.312836,837.117126 227.562241,855.625366 228.987305,875.035522 
z"/>
<path fill="#FDFEFF" opacity="1.000000" stroke="none" 
	d="
M674.000000,483.651550 
	C637.789001,483.651367 602.578064,483.651367 566.783936,483.651367 
	C566.783936,405.817139 566.783936,329.076050 566.783936,251.306488 
	C571.638916,251.883621 575.907471,252.091873 580.048462,252.930374 
	C614.908752,259.989410 644.644104,277.055511 671.262817,300.066345 
	C702.877625,327.396057 727.368408,360.443573 748.214172,396.385406 
	C762.943115,421.780884 775.230469,448.341644 785.874268,475.678345 
	C786.688843,477.770477 787.251526,479.960724 788.421448,483.651703 
	C749.903259,483.651703 712.451660,483.651703 674.000000,483.651550 
z"/>
<path fill="#FDFEFF" opacity="1.000000" stroke="none" 
	d="
M566.189819,1252.000000 
	C566.189880,1196.086182 566.189880,1141.172363 566.189880,1086.484497 
	C573.862183,1084.172119 774.996765,1083.579102 787.670471,1085.745361 
	C786.987671,1087.963257 786.470520,1090.146851 785.656738,1092.213501 
	C765.408752,1143.634277 739.975952,1192.112549 703.788635,1234.309448 
	C677.011902,1265.533203 646.191833,1291.536377 607.161316,1306.424927 
	C594.410034,1311.289062 581.379883,1314.995117 566.189697,1316.064087 
	C566.189697,1294.672119 566.189697,1273.836060 566.189819,1252.000000 
z"/>
<path fill="#FEFEFF" opacity="1.000000" stroke="none" 
	d="
M465.267700,273.094971 
	C486.259033,261.802704 507.321716,253.107727 531.480103,251.435577 
	C531.480103,328.853210 531.480103,405.627777 531.480103,483.026123 
	C457.994690,483.026123 384.829468,483.026123 311.021484,483.026123 
	C311.223572,481.592285 311.158752,480.008820 311.679840,478.650085 
	C331.844574,426.071136 357.624023,376.646515 394.296021,333.495239 
	C414.484222,309.740173 437.307220,288.934235 465.267700,273.094971 
z"/>
<path fill="#FDFEFF" opacity="1.000000" stroke="none" 
	d="
M532.142334,1234.000000 
	C532.142395,1261.602295 532.142395,1288.204712 532.142395,1315.989258 
	C528.124573,1315.581543 524.941406,1315.474121 521.840881,1314.911011 
	C481.074677,1307.508667 447.504517,1286.659912 417.887390,1258.711670 
	C387.281677,1229.830688 363.156067,1195.943359 343.822723,1158.791626 
	C332.622131,1137.268311 323.303162,1114.764526 313.194092,1092.676147 
	C312.259308,1090.633545 311.735840,1088.402588 311.021881,1086.260498 
	C318.620819,1084.194092 517.731506,1083.628174 532.142334,1085.684326 
	C532.142334,1134.648071 532.142334,1183.824097 532.142334,1234.000000 
z"/>
<path fill="#FCFEFF" opacity="1.000000" stroke="none" 
	d="
M320.531372,306.385559 
	C354.830200,288.810974 391.322662,274.316132 406.321381,272.621033 
	C341.426788,330.443390 302.505280,403.605377 273.398163,483.160156 
	C224.962860,483.160156 176.872620,483.160156 128.629425,483.160156 
	C133.732803,466.608887 175.680939,416.083038 212.327820,382.279846 
	C244.806808,352.321106 280.760895,327.268768 320.531372,306.385559 
z"/>
<path fill="#FCFEFF" opacity="1.000000" stroke="none" 
	d="
M889.200684,384.778809 
	C920.600342,414.282013 948.011230,446.194733 971.823059,482.959717 
	C922.420532,482.959717 874.404358,482.959717 825.211731,482.959717 
	C796.101257,404.029236 757.293213,330.415619 693.525146,271.763489 
	C696.886780,272.774139 700.277100,273.698700 703.605835,274.808136 
	C770.201660,297.004852 829.573486,331.646729 881.927612,378.370483 
	C884.163086,380.365540 886.432129,382.323029 889.200684,384.778809 
z"/>
<path fill="#FCFEFF" opacity="1.000000" stroke="none" 
	d="
M798.474854,1148.438232 
	C807.688782,1126.996338 816.581177,1106.237793 825.665344,1085.031738 
	C873.379089,1085.031738 921.207458,1085.031738 969.141541,1085.031738 
	C965.693054,1097.772217 931.251770,1141.467651 902.212341,1169.973511 
	C842.722778,1228.369995 773.594421,1270.748657 692.457764,1295.974609 
	C706.985596,1280.391479 721.326233,1266.483032 733.888977,1251.120483 
	C746.503723,1235.694336 758.161011,1219.329102 768.739563,1202.437134 
	C779.496033,1185.261475 788.424438,1166.940918 798.474854,1148.438232 
z"/>
<path fill="#FCFEFF" opacity="1.000000" stroke="none" 
	d="
M282.891754,1239.159424 
	C220.214752,1198.758911 168.836365,1148.041870 127.232605,1085.172119 
	C176.730072,1085.172119 224.506287,1085.172119 273.412048,1085.172119 
	C274.567474,1087.901978 276.077118,1091.123901 277.315399,1094.447021 
	C292.005646,1133.869629 309.916321,1171.715210 332.506226,1207.268921 
	C350.985748,1236.353271 372.287781,1263.132446 397.673340,1286.534668 
	C399.820099,1288.513672 402.452240,1289.966431 404.218964,1292.294678 
	C387.846527,1293.675659 330.406097,1267.954590 282.891754,1239.159424 
z"/>
<path fill="#FEFFFF" opacity="1.000000" stroke="none" 
	d="
M1457.815552,706.000000 
	C1457.815430,593.435730 1457.815430,481.871460 1457.815430,370.168365 
	C1460.010498,369.457458 1461.516846,368.628601 1463.075806,368.513977 
	C1520.103760,364.320404 1576.906616,365.135284 1632.914551,378.077850 
	C1646.782593,381.282593 1660.400146,386.040253 1673.675415,391.249603 
	C1707.246704,404.423340 1728.626099,430.131073 1743.738770,461.786957 
	C1756.948364,489.456482 1763.557373,518.819031 1766.250366,549.268494 
	C1769.026245,580.656860 1767.754517,611.804688 1761.948975,642.734741 
	C1757.483765,666.523743 1748.883545,688.787231 1735.930542,709.300171 
	C1716.284668,740.412231 1687.482056,759.071533 1653.011353,769.773682 
	C1625.543213,778.301758 1597.319092,782.824158 1568.618164,784.175415 
	C1535.691284,785.725586 1502.751953,787.007202 1469.816162,788.363892 
	C1466.239258,788.511230 1462.650879,788.383728 1457.815674,788.383728 
	C1457.815674,760.754272 1457.815674,733.877136 1457.815552,706.000000 
z"/>
<path fill="#FEFFFF" opacity="1.000000" stroke="none" 
	d="
M2633.552246,802.103027 
	C2657.136963,808.988892 2679.174316,817.399658 2698.563477,831.538879 
	C2730.672852,854.954102 2749.635010,887.136902 2759.932861,924.847778 
	C2770.410156,963.215515 2771.893311,1002.304199 2768.792236,1041.770874 
	C2767.089111,1063.445312 2763.619629,1084.759399 2757.041748,1105.451782 
	C2737.884766,1165.714355 2698.059326,1204.853760 2636.693604,1221.043823 
	C2594.924316,1232.063721 2552.584961,1233.633423 2509.958984,1226.240967 
	C2482.297607,1221.443604 2465.452148,1204.522827 2458.207764,1178.263550 
	C2454.787354,1165.863647 2452.702637,1152.775269 2452.283936,1139.924927 
	C2450.796631,1094.314209 2449.812500,1048.674561 2449.520264,1003.040222 
	C2449.087402,935.397766 2449.407715,867.750488 2449.407471,800.105225 
	C2449.407471,796.524902 2449.407471,792.944641 2449.407471,788.932068 
	C2452.993408,788.548279 2455.570068,788.032715 2458.146729,788.033569 
	C2486.798584,788.042603 2515.486816,787.254089 2544.092285,788.440308 
	C2574.038574,789.682068 2603.749512,793.849731 2633.552246,802.103027 
z"/>
<path fill="#FEFFFF" opacity="1.000000" stroke="none" 
	d="
M2529.778320,368.114319 
	C2557.687012,369.509064 2584.613770,371.138855 2610.874756,377.904602 
	C2665.662354,392.019836 2701.512451,426.390106 2715.491699,481.021423 
	C2728.472168,531.747437 2728.328125,583.282898 2715.896484,634.308228 
	C2708.400879,665.074036 2693.800049,692.078735 2668.782471,712.495728 
	C2650.604980,727.330200 2629.255859,735.706299 2606.950439,741.770996 
	C2580.199219,749.044373 2552.839844,752.855591 2525.181885,754.082825 
	C2503.899902,755.027100 2482.583984,755.225403 2461.281250,755.660217 
	C2457.704834,755.733276 2454.118652,755.321777 2449.997803,755.105896 
	C2449.997803,626.535217 2449.997803,498.783112 2449.997803,370.266937 
	C2476.381836,366.749084 2502.618652,368.049744 2529.778320,368.114319 
z"/>
<path fill="#FDFEFF" opacity="1.000000" stroke="none" 
	d="
M4575.916016,1517.974365 
	C4588.543945,1520.953735 4592.460449,1519.284912 4597.417969,1508.735107 
	C4603.078613,1496.687500 4608.497070,1484.526489 4614.067383,1472.436401 
	C4615.292969,1469.776123 4616.717285,1467.207764 4618.421875,1463.869141 
	C4668.493652,1484.750488 4718.092285,1505.434570 4768.129883,1526.301636 
	C4760.951660,1532.688843 4493.904785,1660.134155 4483.517090,1661.994629 
	C4498.527344,1609.786987 4513.865234,1558.417969 4529.305176,1506.125122 
	C4545.002441,1510.135254 4560.060059,1513.981934 4575.916016,1517.974365 
z"/>
<path fill="#FDFEFF" opacity="1.000000" stroke="none" 
	d="
M4627.994629,1381.944214 
	C4611.053223,1418.910278 4594.395996,1455.179688 4577.260254,1492.489990 
	C4512.116699,1475.724243 4447.309082,1459.045044 4382.501465,1442.365845 
	C4382.438965,1441.593994 4382.376465,1440.822144 4382.313965,1440.050293 
	C4474.443848,1396.134155 4566.573730,1352.218018 4658.445801,1308.424561 
	C4659.202637,1309.034180 4659.487793,1309.195923 4659.675781,1309.433838 
	C4659.864258,1309.672363 4660.146973,1310.071899 4660.064453,1310.256348 
	C4649.488770,1333.928711 4638.883301,1357.587891 4627.994629,1381.944214 
z"/>
<path fill="#FCFEFF" opacity="1.000000" stroke="none" 
	d="
M4395.250000,1520.716187 
	C4386.814453,1502.380127 4377.462402,1485.260620 4369.679688,1464.957397 
	C4415.689941,1476.791016 4459.616699,1488.088745 4504.875488,1499.729004 
	C4489.858887,1550.796387 4475.088867,1601.023315 4459.595215,1653.713135 
	C4450.124023,1638.006104 4444.279785,1623.076904 4437.265137,1608.776978 
	C4430.231934,1594.439087 4423.456055,1579.974976 4416.588867,1565.555786 
	C4409.578613,1550.836182 4402.594727,1536.104126 4395.250000,1520.716187 
z"/>
<path fill="#FCFEFF" opacity="1.000000" stroke="none" 
	d="
M4769.823242,1499.822876 
	C4722.816406,1480.204346 4676.490723,1460.842529 4630.313965,1441.542969 
	C4631.272949,1433.752197 4680.671387,1324.795898 4686.892090,1316.322876 
	C4692.365723,1322.233643 4773.382812,1491.801025 4775.212402,1501.634766 
	C4773.412598,1501.040405 4771.958496,1500.560059 4769.823242,1499.822876 
z"/>
<path fill="#FEFEFF" opacity="1.000000" stroke="none" 
	d="
M2618.655762,1486.895386 
	C2645.934082,1445.412964 2705.171631,1442.574707 2737.708740,1471.627197 
	C2749.199463,1481.887573 2757.224121,1494.473999 2761.177734,1509.212036 
	C2767.401367,1532.411987 2766.247070,1555.400879 2756.178955,1577.467285 
	C2742.002197,1608.538818 2711.648682,1625.082397 2675.264160,1621.927856 
	C2643.712646,1619.192383 2616.715820,1595.820312 2608.212646,1563.399292 
	C2601.240723,1536.815796 2603.635986,1511.312744 2618.655762,1486.895386 
z"/>
<path fill="#FCFEFF" opacity="1.000000" stroke="none" 
	d="
M3281.910156,1497.260742 
	C3277.494141,1511.257080 3267.004639,1516.745605 3254.505127,1517.871338 
	C3237.040283,1519.444336 3219.450684,1519.630981 3202.269531,1520.395142 
	C3199.631836,1512.410522 3199.166992,1468.495972 3201.377441,1456.463257 
	C3220.682617,1456.508789 3240.255127,1454.313232 3259.499023,1458.785278 
	C3278.349365,1463.165894 3285.003906,1474.847046 3281.910156,1497.260742 
z"/>
<path fill="#FCFEFF" opacity="1.000000" stroke="none" 
	d="
M3458.194824,1456.223145 
	C3472.110596,1456.742920 3485.058105,1457.139771 3497.986816,1457.868042 
	C3501.245361,1458.051392 3504.537842,1459.024536 3507.654541,1460.099243 
	C3520.853027,1464.649902 3526.575439,1472.939453 3526.646240,1487.224243 
	C3526.719971,1502.021606 3520.892334,1511.257568 3507.862793,1515.608032 
	C3502.570312,1517.375122 3496.850342,1518.545166 3491.289795,1518.696167 
	C3476.065186,1519.110107 3460.822021,1518.838745 3445.544434,1518.838745 
	C3443.650879,1512.029419 3443.077393,1472.261230 3444.843262,1456.463989 
	C3448.838623,1456.386230 3453.029297,1456.304688 3458.194824,1456.223145 
z"/>
<path fill="#FCFEFF" opacity="1.000000" stroke="none" 
	d="
M4076.006348,1519.713501 
	C4068.427734,1519.713379 4061.833008,1519.713379 4055.468750,1519.713379 
	C4053.266113,1512.023193 4052.638184,1473.766479 4054.316162,1457.163574 
	C4056.354248,1456.867432 4058.555664,1456.223633 4060.738037,1456.282349 
	C4076.315430,1456.700928 4091.895508,1457.130859 4107.458984,1457.878662 
	C4111.031738,1458.050293 4114.666992,1459.135254 4118.061523,1460.379028 
	C4130.221680,1464.834351 4136.091309,1473.709351 4136.168457,1487.214355 
	C4136.250488,1501.573242 4130.801758,1511.181885 4118.285645,1515.130127 
	C4109.863281,1517.786865 4100.775391,1518.496948 4091.923828,1519.565552 
	C4087.011719,1520.158447 4081.972168,1519.698853 4076.006348,1519.713501 
z"/>
</svg>